<svg xmlns="http://www.w3.org/2000/svg" width="177" height="237" fill="none">
  <rect width="157" height="218" fill="#4285F4" rx="20"/>
  <mask id="b" width="186" height="186" x="14" y="51" maskUnits="userSpaceOnUse" style="mask-type:alpha">
    <g clip-path="url(#a)">
      <path fill="#fff" fill-opacity=".7" d="M38.007 146.077a6.718 6.718 0 0 1-3.811-8.894l7.643-18.922a6.503 6.503 0 0 1 2.77-3.285l48.64-37.21c.964-.963 2.257-1.56 3.674-1.76 1.418-.202 2.826.011 4.021.668l57.586 22.4c1.378.492 2.612 1.419 3.411 2.683l12.204 15.621c2.351 2.972 1.788 7.253-1.126 9.526l-6.195 4.874 4.755 33.483a6.76 6.76 0 0 1-2.734 6.448l-49.073 37.546c-.965.964-2.258 1.561-3.676 1.762-1.417.201-2.825-.012-4.02-.669L54.49 187.949a6.755 6.755 0 0 1-4.421-5.432l-5.311-37.399a6.941 6.941 0 0 1-6.75.959Zm60.977-55.558 6.423 45.229 37.022-28.328-43.445-16.901Zm-35.98 86.097 43.744 17.065-6.433-45.296-43.734-16.998 6.423 45.229Zm94.508-13.421-3.087-21.737-30.972 24.37c-2.055 1.532-4.563 1.819-6.741 1.026l3.537 24.91 37.263-28.569Zm-37.21-12.277 38.914-30.525-4.884-6.262-38.913 30.525 4.883 6.262Z"/>
    </g>
  </mask>
  <g mask="url(#b)">
    <rect width="166.924" height="231.78" x="-9.391" y="-15.982" fill="#fff" rx="21.264"/>
  </g>
  <defs>
    <clipPath id="a">
      <path fill="#fff" d="M14 74.008 176.014 51l23.008 162.015-162.014 23.007z"/>
    </clipPath>
  </defs>
</svg>
