<svg width="21" height="21" viewBox="0 0 21 21" fill="none" xmlns="http://www.w3.org/2000/svg">
<path d="M13.0156 2.53765L20.3874 9.88765C20.4749 9.97515 20.5368 10.0699 20.5729 10.172C20.6097 10.2741 20.6281 10.3835 20.6281 10.5001C20.6281 10.6168 20.6097 10.7262 20.5729 10.8283C20.5368 10.9304 20.4749 11.0251 20.3874 11.1126L13.0156 18.4845C12.8114 18.6887 12.5562 18.7908 12.2499 18.7908C11.9437 18.7908 11.6812 18.6814 11.4624 18.4626C11.2437 18.2439 11.1343 17.9887 11.1343 17.697C11.1343 17.4054 11.2437 17.1501 11.4624 16.9314L17.8937 10.5001L11.4624 4.0689C11.2583 3.86473 11.1562 3.61331 11.1562 3.31465C11.1562 3.0154 11.2656 2.7564 11.4843 2.53765C11.7031 2.3189 11.9583 2.20952 12.2499 2.20952C12.5416 2.20952 12.7968 2.3189 13.0156 2.53765Z" fill="#6B7376"/>
</svg>
