<svg width="156" height="155" viewBox="0 0 156 155" fill="none" xmlns="http://www.w3.org/2000/svg">
<rect width="156" height="155" rx="20" fill="#4285F4"/>
<path d="M61.0625 111.565H51.125V108.109H61.0625V111.565ZM67.6875 125.391H57.75V121.935H67.6875V125.391ZM64.375 118.478H54.4375V115.022H64.375V118.478Z" fill="white"/>
<path d="M46.1614 111.565C46.1497 110.107 45.777 108.677 45.0793 107.413C44.3817 106.149 43.3828 105.095 42.1797 104.353L54.4376 82.1848L51.5723 80.4565L39.0229 103.142C37.4828 102.783 35.8809 102.832 34.3639 103.286C32.8469 103.74 31.4632 104.583 30.3392 105.739C24.1382 111.98 24.6185 126.57 24.6417 127.189C24.6588 127.635 24.8409 128.057 25.1496 128.366C25.4584 128.676 25.8699 128.848 26.298 128.848H51.1268C51.4744 128.848 51.8132 128.734 52.0952 128.522C52.3772 128.31 52.5881 128.01 52.6981 127.666C52.808 127.322 52.8114 126.951 52.7077 126.604C52.6041 126.258 52.3986 125.955 52.1206 125.737C46.2574 121.147 46.1614 111.659 46.1614 111.565ZM37.7592 106.375C39.0848 106.39 40.3538 106.938 41.3021 107.905C42.2504 108.872 42.805 110.183 42.8505 111.565C42.8505 111.631 42.8538 111.925 42.8787 112.376L33.1068 107.841C33.7505 107.287 34.4933 106.872 35.292 106.621C36.0907 106.369 36.9293 106.286 37.7592 106.375ZM43.5892 125.391C42.2654 123.985 41.4215 122.163 41.1876 120.207H37.8751C37.9938 122.046 38.5444 123.827 39.4784 125.391H35.7966C35.1154 123.148 34.701 120.827 34.5626 118.478H31.2501C31.357 120.82 31.7266 123.14 32.3516 125.391H27.9376C27.989 122.218 28.418 115.208 30.9239 110.61L43.4004 116.399C43.9998 119.647 45.2779 122.717 47.1435 125.391H43.5892Z" fill="white"/>
<circle cx="136" cy="74" r="12" fill="white" fill-opacity="0.2"/>
<circle cx="112.5" cy="121.5" r="16.5" fill="white" fill-opacity="0.2"/>
</svg>
