<svg width="30" height="30" viewBox="0 0 30 30" fill="none" xmlns="http://www.w3.org/2000/svg">
<path d="M20.0952 4.88208C18.4616 4.88208 16.981 5.1821 15.8239 5.74733C14.6677 6.31255 13.7175 7.23316 13.7175 8.45379V12.0255C13.7175 12.1407 13.7566 12.2523 13.7749 12.3604C12.8629 12.1332 11.9251 12.0207 10.9842 12.0255C9.35056 12.0255 7.87001 12.3255 6.71291 12.8908C5.55672 13.456 4.60645 14.3766 4.60645 15.5972V22.7407C4.60645 23.9613 5.55673 24.8819 6.71383 25.4471C7.87001 26.0123 9.35056 26.3124 10.9842 26.3124C12.6178 26.3124 14.0983 26.0123 15.2554 25.4471C16.4107 24.8819 17.3619 23.9613 17.3619 22.7407V22.3781C18.2532 22.6143 19.1719 22.7361 20.0952 22.7407C21.7288 22.7407 23.2093 22.4406 24.3664 21.8754C25.5217 21.3102 26.4729 20.3896 26.4729 19.1689V8.45379C26.4729 7.23316 25.5226 6.31255 24.3655 5.74733C23.2102 5.1821 21.7297 4.88208 20.0952 4.88208ZM20.0952 6.66794C21.4828 6.66794 22.7182 6.96082 23.5401 7.36531C24.3628 7.76981 24.6507 8.19574 24.6507 8.45379C24.6507 8.71274 24.3628 9.13778 23.5401 9.54227C22.7192 9.94677 21.4828 10.2397 20.0952 10.2397C18.7076 10.2397 17.4721 9.94677 16.6503 9.54227C15.8276 9.13778 15.5397 8.71185 15.5397 8.45379C15.5397 8.19484 15.8276 7.76981 16.6503 7.36531C17.4712 6.96082 18.7076 6.66794 20.0952 6.66794ZM15.5397 10.9933C15.6353 11.0451 15.7246 11.112 15.8248 11.1603C16.981 11.7255 18.4616 12.0255 20.0952 12.0255C21.7288 12.0255 23.2093 11.7255 24.3664 11.1603C24.4657 11.112 24.555 11.0451 24.6507 10.9933V12.0255C24.6507 12.2845 24.3628 12.7095 23.5401 13.114C22.7182 13.5185 21.4828 13.8114 20.0952 13.8114C18.7076 13.8114 17.4721 13.5185 16.6503 13.114C15.8276 12.7095 15.5397 12.2836 15.5397 12.0255V10.9933ZM10.9842 13.8114C12.3718 13.8114 13.6072 14.1042 14.429 14.5087C15.2518 14.9132 15.5397 15.3392 15.5397 15.5972C15.5397 15.8562 15.2518 16.2812 14.429 16.6857C13.6072 17.0902 12.3718 17.3831 10.9842 17.3831C9.59655 17.3831 8.3611 17.0902 7.53928 16.6857C6.71656 16.2812 6.42865 15.8553 6.42865 15.5972C6.42865 15.3383 6.71656 14.9132 7.53928 14.5087C8.36019 14.1042 9.59655 13.8114 10.9842 13.8114ZM24.6507 14.565V15.5972C24.6507 15.8562 24.3628 16.2812 23.5401 16.6857C22.7182 17.0902 21.4828 17.3831 20.0952 17.3831C19.1671 17.388 18.2442 17.2466 17.3619 16.9643V15.5972C17.3619 15.482 17.3227 15.3704 17.3045 15.2624C18.1518 15.4785 19.0912 15.5972 20.0952 15.5972C21.7288 15.5972 23.2093 15.2972 24.3664 14.732C24.4657 14.6838 24.555 14.6168 24.6507 14.565ZM6.42865 18.1367C6.52432 18.1885 6.6136 18.2555 6.71383 18.3037C7.87001 18.8689 9.35056 19.1689 10.9842 19.1689C12.6178 19.1689 14.0983 18.8689 15.2554 18.3037C15.3547 18.2555 15.444 18.1885 15.5397 18.1367V19.1689C15.5397 19.4279 15.2518 19.8529 14.429 20.2574C13.6072 20.6619 12.3718 20.9548 10.9842 20.9548C9.59655 20.9548 8.3611 20.6619 7.53928 20.2574C6.71656 19.8529 6.42865 19.427 6.42865 19.1689V18.1367ZM24.6507 18.1367V19.1689C24.6507 19.4279 24.3628 19.8529 23.5401 20.2574C22.7182 20.6619 21.4828 20.9548 20.0952 20.9548C19.0593 20.9548 18.1236 20.8119 17.3619 20.5637V18.8341C18.1983 19.0502 19.1094 19.1689 20.0952 19.1689C21.7288 19.1689 23.2093 18.8689 24.3664 18.3037C24.4657 18.2555 24.555 18.1885 24.6507 18.1367ZM6.42865 21.7084C6.52432 21.7602 6.6136 21.8272 6.71383 21.8754C7.87001 22.4406 9.35056 22.7407 10.9842 22.7407C12.6178 22.7407 14.0983 22.4406 15.2554 21.8754C15.3547 21.8272 15.444 21.7602 15.5397 21.7084V22.7407C15.5397 22.9996 15.2518 23.4246 14.429 23.8291C13.6072 24.2336 12.3718 24.5265 10.9842 24.5265C9.59655 24.5265 8.3611 24.2336 7.53928 23.8291C6.71656 23.4246 6.42865 22.9987 6.42865 22.7407V21.7084Z" fill="white"/>
</svg>
