<svg width="45" height="45" viewBox="0 0 45 45" fill="none" xmlns="http://www.w3.org/2000/svg">
<g clip-path="url(#clip0_1090_2035)">
<g filter="url(#filter0_d_1090_2035)">
<path d="M18.7501 35.625V26.25H26.2501V35.625C26.2501 36.6562 27.0939 37.5 28.1251 37.5H33.7501C34.7814 37.5 35.6251 36.6562 35.6251 35.625V22.5H38.8126C39.6751 22.5 40.0876 21.4312 39.4314 20.8687L23.7564 6.74998C23.0439 6.11248 21.9564 6.11248 21.2439 6.74998L5.56887 20.8687C4.93137 21.4312 5.32512 22.5 6.18762 22.5H9.37512V35.625C9.37512 36.6562 10.2189 37.5 11.2501 37.5H16.8751C17.9064 37.5 18.7501 36.6562 18.7501 35.625Z" fill="#4285F4"/>
</g>
</g>
<defs>
<filter id="filter0_d_1090_2035" x="-8.38221" y="-7.36451" width="61.773" height="58.5009" filterUnits="userSpaceOnUse" color-interpolation-filters="sRGB">
<feFlood flood-opacity="0" result="BackgroundImageFix"/>
<feColorMatrix in="SourceAlpha" type="matrix" values="0 0 0 0 0 0 0 0 0 0 0 0 0 0 0 0 0 0 127 0" result="hardAlpha"/>
<feOffset/>
<feGaussianBlur stdDeviation="6.81818"/>
<feComposite in2="hardAlpha" operator="out"/>
<feColorMatrix type="matrix" values="0 0 0 0 0.258824 0 0 0 0 0.521569 0 0 0 0 0.956863 0 0 0 0.4 0"/>
<feBlend mode="normal" in2="BackgroundImageFix" result="effect1_dropShadow_1090_2035"/>
<feBlend mode="normal" in="SourceGraphic" in2="effect1_dropShadow_1090_2035" result="shape"/>
</filter>
<clipPath id="clip0_1090_2035">
<rect width="45" height="45" fill="white"/>
</clipPath>
</defs>
</svg>
