<svg width="38" height="38" viewBox="0 0 38 38" fill="none" xmlns="http://www.w3.org/2000/svg">
<g clip-path="url(#clip0_1090_2031)">
<path fill-rule="evenodd" clip-rule="evenodd" d="M21.6196 5.32959C25.0779 5.32959 28.3947 6.70342 30.8401 9.14885C33.2855 11.5943 34.6594 14.911 34.6594 18.3694C34.6594 21.8277 33.2855 25.1444 30.8401 27.5899C28.3947 30.0353 25.0779 31.4091 21.6196 31.4091H20.8525V32.9279C20.8525 33.1315 20.8124 33.3331 20.7344 33.5212C20.6565 33.7093 20.5422 33.8801 20.3982 34.024C20.2541 34.1679 20.0831 34.282 19.895 34.3598C19.7068 34.4376 19.5052 34.4775 19.3016 34.4773C15.5277 34.4743 11.7048 33.2148 8.80379 30.636C5.87674 28.0311 3.98061 24.1606 3.97754 19.1502V18.3694C3.97754 14.911 5.35137 11.5943 7.7968 9.14885C10.2422 6.70342 13.5589 5.32959 17.0173 5.32959H21.6196ZM13.9491 16.0682C13.3388 16.0682 12.7535 16.3107 12.322 16.7422C11.8904 17.1738 11.648 17.7591 11.648 18.3694C11.648 18.9797 11.8904 19.565 12.322 19.9965C12.7535 20.4281 13.3388 20.6705 13.9491 20.6705C14.5594 20.6705 15.1447 20.4281 15.5763 19.9965C16.0078 19.565 16.2503 18.9797 16.2503 18.3694C16.2503 17.7591 16.0078 17.1738 15.5763 16.7422C15.1447 16.3107 14.5594 16.0682 13.9491 16.0682ZM24.6878 16.0682C24.0775 16.0682 23.4922 16.3107 23.0606 16.7422C22.6291 17.1738 22.3866 17.7591 22.3866 18.3694C22.3866 18.9797 22.6291 19.565 23.0606 19.9965C23.4922 20.4281 24.0775 20.6705 24.6878 20.6705C25.2981 20.6705 25.8834 20.4281 26.3149 19.9965C26.7465 19.565 26.9889 18.9797 26.9889 18.3694C26.9889 17.7591 26.7465 17.1738 26.3149 16.7422C25.8834 16.3107 25.2981 16.0682 24.6878 16.0682Z" fill="#A0A3BD"/>
</g>
<defs>
<clipPath id="clip0_1090_2031">
<rect width="36.8182" height="36.8182" fill="white" transform="translate(0.90918 0.727295)"/>
</clipPath>
</defs>
</svg>
