<svg width="374" height="844" viewBox="0 0 374 844" fill="none" xmlns="http://www.w3.org/2000/svg">
<line x1="187" y1="843" x2="187" y2="1" stroke="#C1C1C1" stroke-width="2" stroke-linecap="round" stroke-dasharray="10 10"/>
<g filter="url(#filter0_d_36_2563)">
<rect x="277" y="33" width="83.875" height="55.9167" rx="6.35417" fill="#4CE465"/>
</g>
<path d="M306.528 58.896C306.089 58.4667 305.87 57.9347 305.87 57.3C305.87 56.6653 306.089 56.1333 306.528 55.704C306.967 55.2747 307.517 55.06 308.18 55.06C308.843 55.06 309.393 55.2747 309.832 55.704C310.271 56.1333 310.49 56.6653 310.49 57.3C310.49 57.9347 310.271 58.4667 309.832 58.896C309.393 59.3253 308.843 59.54 308.18 59.54C307.517 59.54 306.967 59.3253 306.528 58.896ZM297.12 65V55.2H298.94L303.476 63.32L303.546 63.46H303.574L303.56 63.32V55.2H304.82V65H303L298.464 56.88L298.394 56.74H298.366L298.38 56.88V65H297.12ZM307.312 56.446C307.097 56.6607 306.99 56.9453 306.99 57.3C306.99 57.6547 307.097 57.944 307.312 58.168C307.536 58.3827 307.825 58.49 308.18 58.49C308.535 58.49 308.819 58.3827 309.034 58.168C309.258 57.944 309.37 57.6547 309.37 57.3C309.37 56.9453 309.258 56.6607 309.034 56.446C308.819 56.222 308.535 56.11 308.18 56.11C307.825 56.11 307.536 56.222 307.312 56.446ZM306.22 61.78V60.66H310.14V61.78H306.22ZM311.266 58.07V56.67L313.156 55.2H314.276V65H313.016V56.74L311.266 58.07ZM315.82 65V63.81L319.04 61.43C319.927 60.7673 320.557 60.198 320.93 59.722C321.304 59.246 321.49 58.6953 321.49 58.07C321.49 57.5007 321.294 57.034 320.902 56.67C320.52 56.2967 320.016 56.11 319.39 56.11C318.588 56.11 317.99 56.4367 317.598 57.09C317.412 57.3887 317.286 57.7153 317.22 58.07H315.89C315.974 57.4913 316.156 56.9687 316.436 56.502C317.099 55.4473 318.084 54.92 319.39 54.92C320.361 54.92 321.164 55.2233 321.798 55.83C322.433 56.4367 322.75 57.1833 322.75 58.07C322.75 58.9193 322.508 59.666 322.022 60.31C321.546 60.9447 320.832 61.598 319.88 62.27L317.85 63.712L317.71 63.796V63.824L317.836 63.81H322.75V65H315.82ZM323.735 62.34H325.065C325.149 62.6853 325.293 62.9793 325.499 63.222C325.965 63.8007 326.637 64.09 327.515 64.09C328.271 64.09 328.854 63.908 329.265 63.544C329.685 63.18 329.895 62.7087 329.895 62.13C329.895 61.5513 329.689 61.08 329.279 60.716C328.868 60.352 328.303 60.17 327.585 60.17H325.555V59.05L328.831 56.404L328.845 56.39H324.225V55.2H330.595V56.39L327.515 58.868L327.389 58.966L327.375 58.98H327.585C328.611 58.98 329.461 59.2927 330.133 59.918C330.814 60.534 331.155 61.2713 331.155 62.13C331.155 62.998 330.809 63.74 330.119 64.356C329.437 64.972 328.569 65.28 327.515 65.28C326.115 65.28 325.074 64.79 324.393 63.81C324.075 63.362 323.856 62.872 323.735 62.34ZM331.991 65L334.511 55.2H338.361L340.881 65H339.621L338.851 62.13H334.021L333.251 65H331.991ZM334.301 60.94H338.571L337.381 56.39H335.491L334.301 60.94Z" fill="white"/>
<g filter="url(#filter1_d_36_2563)">
<rect x="277" y="246" width="83.875" height="55.9167" rx="6.35417" fill="#4CE465"/>
</g>
<path d="M306.528 271.896C306.089 271.467 305.87 270.935 305.87 270.3C305.87 269.665 306.089 269.133 306.528 268.704C306.967 268.275 307.517 268.06 308.18 268.06C308.843 268.06 309.393 268.275 309.832 268.704C310.271 269.133 310.49 269.665 310.49 270.3C310.49 270.935 310.271 271.467 309.832 271.896C309.393 272.325 308.843 272.54 308.18 272.54C307.517 272.54 306.967 272.325 306.528 271.896ZM297.12 278V268.2H298.94L303.476 276.32L303.546 276.46H303.574L303.56 276.32V268.2H304.82V278H303L298.464 269.88L298.394 269.74H298.366L298.38 269.88V278H297.12ZM307.312 269.446C307.097 269.661 306.99 269.945 306.99 270.3C306.99 270.655 307.097 270.944 307.312 271.168C307.536 271.383 307.825 271.49 308.18 271.49C308.535 271.49 308.819 271.383 309.034 271.168C309.258 270.944 309.37 270.655 309.37 270.3C309.37 269.945 309.258 269.661 309.034 269.446C308.819 269.222 308.535 269.11 308.18 269.11C307.825 269.11 307.536 269.222 307.312 269.446ZM306.22 274.78V273.66H310.14V274.78H306.22ZM311.266 271.07V269.67L313.156 268.2H314.276V278H313.016V269.74L311.266 271.07ZM315.82 278V276.81L319.04 274.43C319.927 273.767 320.557 273.198 320.93 272.722C321.304 272.246 321.49 271.695 321.49 271.07C321.49 270.501 321.294 270.034 320.902 269.67C320.52 269.297 320.016 269.11 319.39 269.11C318.588 269.11 317.99 269.437 317.598 270.09C317.412 270.389 317.286 270.715 317.22 271.07H315.89C315.974 270.491 316.156 269.969 316.436 269.502C317.099 268.447 318.084 267.92 319.39 267.92C320.361 267.92 321.164 268.223 321.798 268.83C322.433 269.437 322.75 270.183 322.75 271.07C322.75 271.919 322.508 272.666 322.022 273.31C321.546 273.945 320.832 274.598 319.88 275.27L317.85 276.712L317.71 276.796V276.824L317.836 276.81H322.75V278H315.82ZM323.735 275.34H325.065C325.149 275.685 325.293 275.979 325.499 276.222C325.965 276.801 326.637 277.09 327.515 277.09C328.271 277.09 328.854 276.908 329.265 276.544C329.685 276.18 329.895 275.709 329.895 275.13C329.895 274.551 329.689 274.08 329.279 273.716C328.868 273.352 328.303 273.17 327.585 273.17H325.555V272.05L328.831 269.404L328.845 269.39H324.225V268.2H330.595V269.39L327.515 271.868L327.389 271.966L327.375 271.98H327.585C328.611 271.98 329.461 272.293 330.133 272.918C330.814 273.534 331.155 274.271 331.155 275.13C331.155 275.998 330.809 276.74 330.119 277.356C329.437 277.972 328.569 278.28 327.515 278.28C326.115 278.28 325.074 277.79 324.393 276.81C324.075 276.362 323.856 275.872 323.735 275.34ZM331.991 278L334.511 268.2H338.361L340.881 278H339.621L338.851 275.13H334.021L333.251 278H331.991ZM334.301 273.94H338.571L337.381 269.39H335.491L334.301 273.94Z" fill="white"/>
<rect x="277" y="104.083" width="83.875" height="55.9167" rx="6.35417" fill="#D9D9D9"/>
<path d="M306.528 129.896C306.089 129.467 305.87 128.935 305.87 128.3C305.87 127.665 306.089 127.133 306.528 126.704C306.967 126.275 307.517 126.06 308.18 126.06C308.843 126.06 309.393 126.275 309.832 126.704C310.271 127.133 310.49 127.665 310.49 128.3C310.49 128.935 310.271 129.467 309.832 129.896C309.393 130.325 308.843 130.54 308.18 130.54C307.517 130.54 306.967 130.325 306.528 129.896ZM297.12 136V126.2H298.94L303.476 134.32L303.546 134.46H303.574L303.56 134.32V126.2H304.82V136H303L298.464 127.88L298.394 127.74H298.366L298.38 127.88V136H297.12ZM307.312 127.446C307.097 127.661 306.99 127.945 306.99 128.3C306.99 128.655 307.097 128.944 307.312 129.168C307.536 129.383 307.825 129.49 308.18 129.49C308.535 129.49 308.819 129.383 309.034 129.168C309.258 128.944 309.37 128.655 309.37 128.3C309.37 127.945 309.258 127.661 309.034 127.446C308.819 127.222 308.535 127.11 308.18 127.11C307.825 127.11 307.536 127.222 307.312 127.446ZM306.22 132.78V131.66H310.14V132.78H306.22ZM311.266 129.07V127.67L313.156 126.2H314.276V136H313.016V127.74L311.266 129.07ZM315.82 136V134.81L319.04 132.43C319.927 131.767 320.557 131.198 320.93 130.722C321.304 130.246 321.49 129.695 321.49 129.07C321.49 128.501 321.294 128.034 320.902 127.67C320.52 127.297 320.016 127.11 319.39 127.11C318.588 127.11 317.99 127.437 317.598 128.09C317.412 128.389 317.286 128.715 317.22 129.07H315.89C315.974 128.491 316.156 127.969 316.436 127.502C317.099 126.447 318.084 125.92 319.39 125.92C320.361 125.92 321.164 126.223 321.798 126.83C322.433 127.437 322.75 128.183 322.75 129.07C322.75 129.919 322.508 130.666 322.022 131.31C321.546 131.945 320.832 132.598 319.88 133.27L317.85 134.712L317.71 134.796V134.824L317.836 134.81H322.75V136H315.82ZM323.735 133.34H325.065C325.149 133.685 325.293 133.979 325.499 134.222C325.965 134.801 326.637 135.09 327.515 135.09C328.271 135.09 328.854 134.908 329.265 134.544C329.685 134.18 329.895 133.709 329.895 133.13C329.895 132.551 329.689 132.08 329.279 131.716C328.868 131.352 328.303 131.17 327.585 131.17H325.555V130.05L328.831 127.404L328.845 127.39H324.225V126.2H330.595V127.39L327.515 129.868L327.389 129.966L327.375 129.98H327.585C328.611 129.98 329.461 130.293 330.133 130.918C330.814 131.534 331.155 132.271 331.155 133.13C331.155 133.998 330.809 134.74 330.119 135.356C329.437 135.972 328.569 136.28 327.515 136.28C326.115 136.28 325.074 135.79 324.393 134.81C324.075 134.362 323.856 133.872 323.735 133.34ZM331.991 136L334.511 126.2H338.361L340.881 136H339.621L338.851 133.13H334.021L333.251 136H331.991ZM334.301 131.94H338.571L337.381 127.39H335.491L334.301 131.94Z" fill="white"/>
<rect x="277" y="175" width="83.875" height="55.9167" rx="6.35417" fill="#D9D9D9"/>
<path d="M306.528 200.813C306.089 200.383 305.87 199.851 305.87 199.217C305.87 198.582 306.089 198.05 306.528 197.621C306.967 197.191 307.517 196.977 308.18 196.977C308.843 196.977 309.393 197.191 309.832 197.621C310.271 198.05 310.49 198.582 310.49 199.217C310.49 199.851 310.271 200.383 309.832 200.813C309.393 201.242 308.843 201.457 308.18 201.457C307.517 201.457 306.967 201.242 306.528 200.813ZM297.12 206.917V197.117H298.94L303.476 205.237L303.546 205.377H303.574L303.56 205.237V197.117H304.82V206.917H303L298.464 198.797L298.394 198.657H298.366L298.38 198.797V206.917H297.12ZM307.312 198.363C307.097 198.577 306.99 198.862 306.99 199.217C306.99 199.571 307.097 199.861 307.312 200.085C307.536 200.299 307.825 200.407 308.18 200.407C308.535 200.407 308.819 200.299 309.034 200.085C309.258 199.861 309.37 199.571 309.37 199.217C309.37 198.862 309.258 198.577 309.034 198.363C308.819 198.139 308.535 198.027 308.18 198.027C307.825 198.027 307.536 198.139 307.312 198.363ZM306.22 203.697V202.577H310.14V203.697H306.22ZM311.266 199.987V198.587L313.156 197.117H314.276V206.917H313.016V198.657L311.266 199.987ZM315.82 206.917V205.727L319.04 203.347C319.927 202.684 320.557 202.115 320.93 201.639C321.304 201.163 321.49 200.612 321.49 199.987C321.49 199.417 321.294 198.951 320.902 198.587C320.52 198.213 320.016 198.027 319.39 198.027C318.588 198.027 317.99 198.353 317.598 199.007C317.412 199.305 317.286 199.632 317.22 199.987H315.89C315.974 199.408 316.156 198.885 316.436 198.419C317.099 197.364 318.084 196.837 319.39 196.837C320.361 196.837 321.164 197.14 321.798 197.747C322.433 198.353 322.75 199.1 322.75 199.987C322.75 200.836 322.508 201.583 322.022 202.227C321.546 202.861 320.832 203.515 319.88 204.187L317.85 205.629L317.71 205.713V205.741L317.836 205.727H322.75V206.917H315.82ZM323.735 204.257H325.065C325.149 204.602 325.293 204.896 325.499 205.139C325.965 205.717 326.637 206.007 327.515 206.007C328.271 206.007 328.854 205.825 329.265 205.461C329.685 205.097 329.895 204.625 329.895 204.047C329.895 203.468 329.689 202.997 329.279 202.633C328.868 202.269 328.303 202.087 327.585 202.087H325.555V200.967L328.831 198.321L328.845 198.307H324.225V197.117H330.595V198.307L327.515 200.785L327.389 200.883L327.375 200.897H327.585C328.611 200.897 329.461 201.209 330.133 201.835C330.814 202.451 331.155 203.188 331.155 204.047C331.155 204.915 330.809 205.657 330.119 206.273C329.437 206.889 328.569 207.197 327.515 207.197C326.115 207.197 325.074 206.707 324.393 205.727C324.075 205.279 323.856 204.789 323.735 204.257ZM331.991 206.917L334.511 197.117H338.361L340.881 206.917H339.621L338.851 204.047H334.021L333.251 206.917H331.991ZM334.301 202.857H338.571L337.381 198.307H335.491L334.301 202.857Z" fill="white"/>
<g filter="url(#filter2_d_36_2563)">
<rect x="277" y="388" width="83.875" height="55.9167" rx="6.35417" fill="#4CE465"/>
</g>
<path d="M306.528 413.896C306.089 413.467 305.87 412.935 305.87 412.3C305.87 411.665 306.089 411.133 306.528 410.704C306.967 410.275 307.517 410.06 308.18 410.06C308.843 410.06 309.393 410.275 309.832 410.704C310.271 411.133 310.49 411.665 310.49 412.3C310.49 412.935 310.271 413.467 309.832 413.896C309.393 414.325 308.843 414.54 308.18 414.54C307.517 414.54 306.967 414.325 306.528 413.896ZM297.12 420V410.2H298.94L303.476 418.32L303.546 418.46H303.574L303.56 418.32V410.2H304.82V420H303L298.464 411.88L298.394 411.74H298.366L298.38 411.88V420H297.12ZM307.312 411.446C307.097 411.661 306.99 411.945 306.99 412.3C306.99 412.655 307.097 412.944 307.312 413.168C307.536 413.383 307.825 413.49 308.18 413.49C308.535 413.49 308.819 413.383 309.034 413.168C309.258 412.944 309.37 412.655 309.37 412.3C309.37 411.945 309.258 411.661 309.034 411.446C308.819 411.222 308.535 411.11 308.18 411.11C307.825 411.11 307.536 411.222 307.312 411.446ZM306.22 416.78V415.66H310.14V416.78H306.22ZM311.266 413.07V411.67L313.156 410.2H314.276V420H313.016V411.74L311.266 413.07ZM315.82 420V418.81L319.04 416.43C319.927 415.767 320.557 415.198 320.93 414.722C321.304 414.246 321.49 413.695 321.49 413.07C321.49 412.501 321.294 412.034 320.902 411.67C320.52 411.297 320.016 411.11 319.39 411.11C318.588 411.11 317.99 411.437 317.598 412.09C317.412 412.389 317.286 412.715 317.22 413.07H315.89C315.974 412.491 316.156 411.969 316.436 411.502C317.099 410.447 318.084 409.92 319.39 409.92C320.361 409.92 321.164 410.223 321.798 410.83C322.433 411.437 322.75 412.183 322.75 413.07C322.75 413.919 322.508 414.666 322.022 415.31C321.546 415.945 320.832 416.598 319.88 417.27L317.85 418.712L317.71 418.796V418.824L317.836 418.81H322.75V420H315.82ZM323.735 417.34H325.065C325.149 417.685 325.293 417.979 325.499 418.222C325.965 418.801 326.637 419.09 327.515 419.09C328.271 419.09 328.854 418.908 329.265 418.544C329.685 418.18 329.895 417.709 329.895 417.13C329.895 416.551 329.689 416.08 329.279 415.716C328.868 415.352 328.303 415.17 327.585 415.17H325.555V414.05L328.831 411.404L328.845 411.39H324.225V410.2H330.595V411.39L327.515 413.868L327.389 413.966L327.375 413.98H327.585C328.611 413.98 329.461 414.293 330.133 414.918C330.814 415.534 331.155 416.271 331.155 417.13C331.155 417.998 330.809 418.74 330.119 419.356C329.437 419.972 328.569 420.28 327.515 420.28C326.115 420.28 325.074 419.79 324.393 418.81C324.075 418.362 323.856 417.872 323.735 417.34ZM331.991 420L334.511 410.2H338.361L340.881 420H339.621L338.851 417.13H334.021L333.251 420H331.991ZM334.301 415.94H338.571L337.381 411.39H335.491L334.301 415.94Z" fill="white"/>
<g filter="url(#filter3_d_36_2563)">
<rect x="277" y="459" width="83.875" height="55.9167" rx="6.35417" fill="#4CE465"/>
</g>
<path d="M306.528 484.896C306.089 484.467 305.87 483.935 305.87 483.3C305.87 482.665 306.089 482.133 306.528 481.704C306.967 481.275 307.517 481.06 308.18 481.06C308.843 481.06 309.393 481.275 309.832 481.704C310.271 482.133 310.49 482.665 310.49 483.3C310.49 483.935 310.271 484.467 309.832 484.896C309.393 485.325 308.843 485.54 308.18 485.54C307.517 485.54 306.967 485.325 306.528 484.896ZM297.12 491V481.2H298.94L303.476 489.32L303.546 489.46H303.574L303.56 489.32V481.2H304.82V491H303L298.464 482.88L298.394 482.74H298.366L298.38 482.88V491H297.12ZM307.312 482.446C307.097 482.661 306.99 482.945 306.99 483.3C306.99 483.655 307.097 483.944 307.312 484.168C307.536 484.383 307.825 484.49 308.18 484.49C308.535 484.49 308.819 484.383 309.034 484.168C309.258 483.944 309.37 483.655 309.37 483.3C309.37 482.945 309.258 482.661 309.034 482.446C308.819 482.222 308.535 482.11 308.18 482.11C307.825 482.11 307.536 482.222 307.312 482.446ZM306.22 487.78V486.66H310.14V487.78H306.22ZM311.266 484.07V482.67L313.156 481.2H314.276V491H313.016V482.74L311.266 484.07ZM315.82 491V489.81L319.04 487.43C319.927 486.767 320.557 486.198 320.93 485.722C321.304 485.246 321.49 484.695 321.49 484.07C321.49 483.501 321.294 483.034 320.902 482.67C320.52 482.297 320.016 482.11 319.39 482.11C318.588 482.11 317.99 482.437 317.598 483.09C317.412 483.389 317.286 483.715 317.22 484.07H315.89C315.974 483.491 316.156 482.969 316.436 482.502C317.099 481.447 318.084 480.92 319.39 480.92C320.361 480.92 321.164 481.223 321.798 481.83C322.433 482.437 322.75 483.183 322.75 484.07C322.75 484.919 322.508 485.666 322.022 486.31C321.546 486.945 320.832 487.598 319.88 488.27L317.85 489.712L317.71 489.796V489.824L317.836 489.81H322.75V491H315.82ZM323.735 488.34H325.065C325.149 488.685 325.293 488.979 325.499 489.222C325.965 489.801 326.637 490.09 327.515 490.09C328.271 490.09 328.854 489.908 329.265 489.544C329.685 489.18 329.895 488.709 329.895 488.13C329.895 487.551 329.689 487.08 329.279 486.716C328.868 486.352 328.303 486.17 327.585 486.17H325.555V485.05L328.831 482.404L328.845 482.39H324.225V481.2H330.595V482.39L327.515 484.868L327.389 484.966L327.375 484.98H327.585C328.611 484.98 329.461 485.293 330.133 485.918C330.814 486.534 331.155 487.271 331.155 488.13C331.155 488.998 330.809 489.74 330.119 490.356C329.437 490.972 328.569 491.28 327.515 491.28C326.115 491.28 325.074 490.79 324.393 489.81C324.075 489.362 323.856 488.872 323.735 488.34ZM331.991 491L334.511 481.2H338.361L340.881 491H339.621L338.851 488.13H334.021L333.251 491H331.991ZM334.301 486.94H338.571L337.381 482.39H335.491L334.301 486.94Z" fill="white"/>
<g filter="url(#filter4_d_36_2563)">
<rect x="277" y="530" width="83.875" height="55.9167" rx="6.35417" fill="#4CE465"/>
</g>
<path d="M306.528 555.896C306.089 555.467 305.87 554.935 305.87 554.3C305.87 553.665 306.089 553.133 306.528 552.704C306.967 552.275 307.517 552.06 308.18 552.06C308.843 552.06 309.393 552.275 309.832 552.704C310.271 553.133 310.49 553.665 310.49 554.3C310.49 554.935 310.271 555.467 309.832 555.896C309.393 556.325 308.843 556.54 308.18 556.54C307.517 556.54 306.967 556.325 306.528 555.896ZM297.12 562V552.2H298.94L303.476 560.32L303.546 560.46H303.574L303.56 560.32V552.2H304.82V562H303L298.464 553.88L298.394 553.74H298.366L298.38 553.88V562H297.12ZM307.312 553.446C307.097 553.661 306.99 553.945 306.99 554.3C306.99 554.655 307.097 554.944 307.312 555.168C307.536 555.383 307.825 555.49 308.18 555.49C308.535 555.49 308.819 555.383 309.034 555.168C309.258 554.944 309.37 554.655 309.37 554.3C309.37 553.945 309.258 553.661 309.034 553.446C308.819 553.222 308.535 553.11 308.18 553.11C307.825 553.11 307.536 553.222 307.312 553.446ZM306.22 558.78V557.66H310.14V558.78H306.22ZM311.266 555.07V553.67L313.156 552.2H314.276V562H313.016V553.74L311.266 555.07ZM315.82 562V560.81L319.04 558.43C319.927 557.767 320.557 557.198 320.93 556.722C321.304 556.246 321.49 555.695 321.49 555.07C321.49 554.501 321.294 554.034 320.902 553.67C320.52 553.297 320.016 553.11 319.39 553.11C318.588 553.11 317.99 553.437 317.598 554.09C317.412 554.389 317.286 554.715 317.22 555.07H315.89C315.974 554.491 316.156 553.969 316.436 553.502C317.099 552.447 318.084 551.92 319.39 551.92C320.361 551.92 321.164 552.223 321.798 552.83C322.433 553.437 322.75 554.183 322.75 555.07C322.75 555.919 322.508 556.666 322.022 557.31C321.546 557.945 320.832 558.598 319.88 559.27L317.85 560.712L317.71 560.796V560.824L317.836 560.81H322.75V562H315.82ZM323.735 559.34H325.065C325.149 559.685 325.293 559.979 325.499 560.222C325.965 560.801 326.637 561.09 327.515 561.09C328.271 561.09 328.854 560.908 329.265 560.544C329.685 560.18 329.895 559.709 329.895 559.13C329.895 558.551 329.689 558.08 329.279 557.716C328.868 557.352 328.303 557.17 327.585 557.17H325.555V556.05L328.831 553.404L328.845 553.39H324.225V552.2H330.595V553.39L327.515 555.868L327.389 555.966L327.375 555.98H327.585C328.611 555.98 329.461 556.293 330.133 556.918C330.814 557.534 331.155 558.271 331.155 559.13C331.155 559.998 330.809 560.74 330.119 561.356C329.437 561.972 328.569 562.28 327.515 562.28C326.115 562.28 325.074 561.79 324.393 560.81C324.075 560.362 323.856 559.872 323.735 559.34ZM331.991 562L334.511 552.2H338.361L340.881 562H339.621L338.851 559.13H334.021L333.251 562H331.991ZM334.301 557.94H338.571L337.381 553.39H335.491L334.301 557.94Z" fill="white"/>
<g filter="url(#filter5_d_36_2563)">
<rect x="277" y="743" width="83.875" height="55.9167" rx="6.35417" fill="#4CE465"/>
</g>
<path d="M306.528 768.896C306.089 768.467 305.87 767.935 305.87 767.3C305.87 766.665 306.089 766.133 306.528 765.704C306.967 765.275 307.517 765.06 308.18 765.06C308.843 765.06 309.393 765.275 309.832 765.704C310.271 766.133 310.49 766.665 310.49 767.3C310.49 767.935 310.271 768.467 309.832 768.896C309.393 769.325 308.843 769.54 308.18 769.54C307.517 769.54 306.967 769.325 306.528 768.896ZM297.12 775V765.2H298.94L303.476 773.32L303.546 773.46H303.574L303.56 773.32V765.2H304.82V775H303L298.464 766.88L298.394 766.74H298.366L298.38 766.88V775H297.12ZM307.312 766.446C307.097 766.661 306.99 766.945 306.99 767.3C306.99 767.655 307.097 767.944 307.312 768.168C307.536 768.383 307.825 768.49 308.18 768.49C308.535 768.49 308.819 768.383 309.034 768.168C309.258 767.944 309.37 767.655 309.37 767.3C309.37 766.945 309.258 766.661 309.034 766.446C308.819 766.222 308.535 766.11 308.18 766.11C307.825 766.11 307.536 766.222 307.312 766.446ZM306.22 771.78V770.66H310.14V771.78H306.22ZM311.266 768.07V766.67L313.156 765.2H314.276V775H313.016V766.74L311.266 768.07ZM315.82 775V773.81L319.04 771.43C319.927 770.767 320.557 770.198 320.93 769.722C321.304 769.246 321.49 768.695 321.49 768.07C321.49 767.501 321.294 767.034 320.902 766.67C320.52 766.297 320.016 766.11 319.39 766.11C318.588 766.11 317.99 766.437 317.598 767.09C317.412 767.389 317.286 767.715 317.22 768.07H315.89C315.974 767.491 316.156 766.969 316.436 766.502C317.099 765.447 318.084 764.92 319.39 764.92C320.361 764.92 321.164 765.223 321.798 765.83C322.433 766.437 322.75 767.183 322.75 768.07C322.75 768.919 322.508 769.666 322.022 770.31C321.546 770.945 320.832 771.598 319.88 772.27L317.85 773.712L317.71 773.796V773.824L317.836 773.81H322.75V775H315.82ZM323.735 772.34H325.065C325.149 772.685 325.293 772.979 325.499 773.222C325.965 773.801 326.637 774.09 327.515 774.09C328.271 774.09 328.854 773.908 329.265 773.544C329.685 773.18 329.895 772.709 329.895 772.13C329.895 771.551 329.689 771.08 329.279 770.716C328.868 770.352 328.303 770.17 327.585 770.17H325.555V769.05L328.831 766.404L328.845 766.39H324.225V765.2H330.595V766.39L327.515 768.868L327.389 768.966L327.375 768.98H327.585C328.611 768.98 329.461 769.293 330.133 769.918C330.814 770.534 331.155 771.271 331.155 772.13C331.155 772.998 330.809 773.74 330.119 774.356C329.437 774.972 328.569 775.28 327.515 775.28C326.115 775.28 325.074 774.79 324.393 773.81C324.075 773.362 323.856 772.872 323.735 772.34ZM331.991 775L334.511 765.2H338.361L340.881 775H339.621L338.851 772.13H334.021L333.251 775H331.991ZM334.301 770.94H338.571L337.381 766.39H335.491L334.301 770.94Z" fill="white"/>
<g filter="url(#filter6_d_36_2563)">
<rect x="13" y="246" width="83.875" height="55.9167" rx="6.35417" fill="#4CE465"/>
</g>
<path d="M42.528 271.896C42.0893 271.467 41.87 270.935 41.87 270.3C41.87 269.665 42.0893 269.133 42.528 268.704C42.9667 268.275 43.5173 268.06 44.18 268.06C44.8427 268.06 45.3933 268.275 45.832 268.704C46.2707 269.133 46.49 269.665 46.49 270.3C46.49 270.935 46.2707 271.467 45.832 271.896C45.3933 272.325 44.8427 272.54 44.18 272.54C43.5173 272.54 42.9667 272.325 42.528 271.896ZM33.12 278V268.2H34.94L39.476 276.32L39.546 276.46H39.574L39.56 276.32V268.2H40.82V278H39L34.464 269.88L34.394 269.74H34.366L34.38 269.88V278H33.12ZM43.312 269.446C43.0973 269.661 42.99 269.945 42.99 270.3C42.99 270.655 43.0973 270.944 43.312 271.168C43.536 271.383 43.8253 271.49 44.18 271.49C44.5347 271.49 44.8193 271.383 45.034 271.168C45.258 270.944 45.37 270.655 45.37 270.3C45.37 269.945 45.258 269.661 45.034 269.446C44.8193 269.222 44.5347 269.11 44.18 269.11C43.8253 269.11 43.536 269.222 43.312 269.446ZM42.22 274.78V273.66H46.14V274.78H42.22ZM47.266 271.07V269.67L49.156 268.2H50.276V278H49.016V269.74L47.266 271.07ZM51.8204 278V276.81L55.0404 274.43C55.9271 273.767 56.5571 273.198 56.9304 272.722C57.3037 272.246 57.4904 271.695 57.4904 271.07C57.4904 270.501 57.2944 270.034 56.9024 269.67C56.5197 269.297 56.0157 269.11 55.3904 269.11C54.5877 269.11 53.9904 269.437 53.5984 270.09C53.4117 270.389 53.2857 270.715 53.2204 271.07H51.8904C51.9744 270.491 52.1564 269.969 52.4364 269.502C53.0991 268.447 54.0837 267.92 55.3904 267.92C56.3611 267.92 57.1637 268.223 57.7984 268.83C58.4331 269.437 58.7504 270.183 58.7504 271.07C58.7504 271.919 58.5077 272.666 58.0224 273.31C57.5464 273.945 56.8324 274.598 55.8804 275.27L53.8504 276.712L53.7104 276.796V276.824L53.8364 276.81H58.7504V278H51.8204ZM59.7348 275.34H61.0648C61.1488 275.685 61.2934 275.979 61.4988 276.222C61.9654 276.801 62.6374 277.09 63.5148 277.09C64.2708 277.09 64.8541 276.908 65.2648 276.544C65.6848 276.18 65.8948 275.709 65.8948 275.13C65.8948 274.551 65.6894 274.08 65.2788 273.716C64.8681 273.352 64.3034 273.17 63.5848 273.17H61.5548V272.05L64.8308 269.404L64.8448 269.39H60.2248V268.2H66.5948V269.39L63.5148 271.868L63.3888 271.966L63.3748 271.98H63.5848C64.6114 271.98 65.4608 272.293 66.1328 272.918C66.8141 273.534 67.1548 274.271 67.1548 275.13C67.1548 275.998 66.8094 276.74 66.1188 277.356C65.4374 277.972 64.5694 278.28 63.5148 278.28C62.1148 278.28 61.0741 277.79 60.3928 276.81C60.0754 276.362 59.8561 275.872 59.7348 275.34ZM67.9909 278L70.5109 268.2H74.3609L76.8809 278H75.6209L74.8509 275.13H70.0209L69.2509 278H67.9909ZM70.3009 273.94H74.5709L73.3809 269.39H71.4909L70.3009 273.94Z" fill="white"/>
<g filter="url(#filter7_d_36_2563)">
<rect x="13" y="317" width="83.875" height="55.9167" rx="6.35417" fill="#4CE465"/>
</g>
<path d="M42.528 342.896C42.0893 342.467 41.87 341.935 41.87 341.3C41.87 340.665 42.0893 340.133 42.528 339.704C42.9667 339.275 43.5173 339.06 44.18 339.06C44.8427 339.06 45.3933 339.275 45.832 339.704C46.2707 340.133 46.49 340.665 46.49 341.3C46.49 341.935 46.2707 342.467 45.832 342.896C45.3933 343.325 44.8427 343.54 44.18 343.54C43.5173 343.54 42.9667 343.325 42.528 342.896ZM33.12 349V339.2H34.94L39.476 347.32L39.546 347.46H39.574L39.56 347.32V339.2H40.82V349H39L34.464 340.88L34.394 340.74H34.366L34.38 340.88V349H33.12ZM43.312 340.446C43.0973 340.661 42.99 340.945 42.99 341.3C42.99 341.655 43.0973 341.944 43.312 342.168C43.536 342.383 43.8253 342.49 44.18 342.49C44.5347 342.49 44.8193 342.383 45.034 342.168C45.258 341.944 45.37 341.655 45.37 341.3C45.37 340.945 45.258 340.661 45.034 340.446C44.8193 340.222 44.5347 340.11 44.18 340.11C43.8253 340.11 43.536 340.222 43.312 340.446ZM42.22 345.78V344.66H46.14V345.78H42.22ZM47.266 342.07V340.67L49.156 339.2H50.276V349H49.016V340.74L47.266 342.07ZM51.8204 349V347.81L55.0404 345.43C55.9271 344.767 56.5571 344.198 56.9304 343.722C57.3037 343.246 57.4904 342.695 57.4904 342.07C57.4904 341.501 57.2944 341.034 56.9024 340.67C56.5197 340.297 56.0157 340.11 55.3904 340.11C54.5877 340.11 53.9904 340.437 53.5984 341.09C53.4117 341.389 53.2857 341.715 53.2204 342.07H51.8904C51.9744 341.491 52.1564 340.969 52.4364 340.502C53.0991 339.447 54.0837 338.92 55.3904 338.92C56.3611 338.92 57.1637 339.223 57.7984 339.83C58.4331 340.437 58.7504 341.183 58.7504 342.07C58.7504 342.919 58.5077 343.666 58.0224 344.31C57.5464 344.945 56.8324 345.598 55.8804 346.27L53.8504 347.712L53.7104 347.796V347.824L53.8364 347.81H58.7504V349H51.8204ZM59.7348 346.34H61.0648C61.1488 346.685 61.2934 346.979 61.4988 347.222C61.9654 347.801 62.6374 348.09 63.5148 348.09C64.2708 348.09 64.8541 347.908 65.2648 347.544C65.6848 347.18 65.8948 346.709 65.8948 346.13C65.8948 345.551 65.6894 345.08 65.2788 344.716C64.8681 344.352 64.3034 344.17 63.5848 344.17H61.5548V343.05L64.8308 340.404L64.8448 340.39H60.2248V339.2H66.5948V340.39L63.5148 342.868L63.3888 342.966L63.3748 342.98H63.5848C64.6114 342.98 65.4608 343.293 66.1328 343.918C66.8141 344.534 67.1548 345.271 67.1548 346.13C67.1548 346.998 66.8094 347.74 66.1188 348.356C65.4374 348.972 64.5694 349.28 63.5148 349.28C62.1148 349.28 61.0741 348.79 60.3928 347.81C60.0754 347.362 59.8561 346.872 59.7348 346.34ZM67.9909 349L70.5109 339.2H74.3609L76.8809 349H75.6209L74.8509 346.13H70.0209L69.2509 349H67.9909ZM70.3009 344.94H74.5709L73.3809 340.39H71.4909L70.3009 344.94Z" fill="white"/>
<g filter="url(#filter8_d_36_2563)">
<rect x="13" y="388" width="83.875" height="55.9167" rx="6.35417" fill="#4CE465"/>
</g>
<path d="M42.528 413.896C42.0893 413.467 41.87 412.935 41.87 412.3C41.87 411.665 42.0893 411.133 42.528 410.704C42.9667 410.275 43.5173 410.06 44.18 410.06C44.8427 410.06 45.3933 410.275 45.832 410.704C46.2707 411.133 46.49 411.665 46.49 412.3C46.49 412.935 46.2707 413.467 45.832 413.896C45.3933 414.325 44.8427 414.54 44.18 414.54C43.5173 414.54 42.9667 414.325 42.528 413.896ZM33.12 420V410.2H34.94L39.476 418.32L39.546 418.46H39.574L39.56 418.32V410.2H40.82V420H39L34.464 411.88L34.394 411.74H34.366L34.38 411.88V420H33.12ZM43.312 411.446C43.0973 411.661 42.99 411.945 42.99 412.3C42.99 412.655 43.0973 412.944 43.312 413.168C43.536 413.383 43.8253 413.49 44.18 413.49C44.5347 413.49 44.8193 413.383 45.034 413.168C45.258 412.944 45.37 412.655 45.37 412.3C45.37 411.945 45.258 411.661 45.034 411.446C44.8193 411.222 44.5347 411.11 44.18 411.11C43.8253 411.11 43.536 411.222 43.312 411.446ZM42.22 416.78V415.66H46.14V416.78H42.22ZM47.266 413.07V411.67L49.156 410.2H50.276V420H49.016V411.74L47.266 413.07ZM51.8204 420V418.81L55.0404 416.43C55.9271 415.767 56.5571 415.198 56.9304 414.722C57.3037 414.246 57.4904 413.695 57.4904 413.07C57.4904 412.501 57.2944 412.034 56.9024 411.67C56.5197 411.297 56.0157 411.11 55.3904 411.11C54.5877 411.11 53.9904 411.437 53.5984 412.09C53.4117 412.389 53.2857 412.715 53.2204 413.07H51.8904C51.9744 412.491 52.1564 411.969 52.4364 411.502C53.0991 410.447 54.0837 409.92 55.3904 409.92C56.3611 409.92 57.1637 410.223 57.7984 410.83C58.4331 411.437 58.7504 412.183 58.7504 413.07C58.7504 413.919 58.5077 414.666 58.0224 415.31C57.5464 415.945 56.8324 416.598 55.8804 417.27L53.8504 418.712L53.7104 418.796V418.824L53.8364 418.81H58.7504V420H51.8204ZM59.7348 417.34H61.0648C61.1488 417.685 61.2934 417.979 61.4988 418.222C61.9654 418.801 62.6374 419.09 63.5148 419.09C64.2708 419.09 64.8541 418.908 65.2648 418.544C65.6848 418.18 65.8948 417.709 65.8948 417.13C65.8948 416.551 65.6894 416.08 65.2788 415.716C64.8681 415.352 64.3034 415.17 63.5848 415.17H61.5548V414.05L64.8308 411.404L64.8448 411.39H60.2248V410.2H66.5948V411.39L63.5148 413.868L63.3888 413.966L63.3748 413.98H63.5848C64.6114 413.98 65.4608 414.293 66.1328 414.918C66.8141 415.534 67.1548 416.271 67.1548 417.13C67.1548 417.998 66.8094 418.74 66.1188 419.356C65.4374 419.972 64.5694 420.28 63.5148 420.28C62.1148 420.28 61.0741 419.79 60.3928 418.81C60.0754 418.362 59.8561 417.872 59.7348 417.34ZM67.9909 420L70.5109 410.2H74.3609L76.8809 420H75.6209L74.8509 417.13H70.0209L69.2509 420H67.9909ZM70.3009 415.94H74.5709L73.3809 411.39H71.4909L70.3009 415.94Z" fill="white"/>
<rect x="277" y="317" width="83.875" height="55.9167" rx="6.35417" fill="#D9D9D9"/>
<path d="M306.528 342.813C306.089 342.383 305.87 341.851 305.87 341.217C305.87 340.582 306.089 340.05 306.528 339.621C306.967 339.191 307.517 338.977 308.18 338.977C308.843 338.977 309.393 339.191 309.832 339.621C310.271 340.05 310.49 340.582 310.49 341.217C310.49 341.851 310.271 342.383 309.832 342.813C309.393 343.242 308.843 343.457 308.18 343.457C307.517 343.457 306.967 343.242 306.528 342.813ZM297.12 348.917V339.117H298.94L303.476 347.237L303.546 347.377H303.574L303.56 347.237V339.117H304.82V348.917H303L298.464 340.797L298.394 340.657H298.366L298.38 340.797V348.917H297.12ZM307.312 340.363C307.097 340.577 306.99 340.862 306.99 341.217C306.99 341.571 307.097 341.861 307.312 342.085C307.536 342.299 307.825 342.407 308.18 342.407C308.535 342.407 308.819 342.299 309.034 342.085C309.258 341.861 309.37 341.571 309.37 341.217C309.37 340.862 309.258 340.577 309.034 340.363C308.819 340.139 308.535 340.027 308.18 340.027C307.825 340.027 307.536 340.139 307.312 340.363ZM306.22 345.697V344.577H310.14V345.697H306.22ZM311.266 341.987V340.587L313.156 339.117H314.276V348.917H313.016V340.657L311.266 341.987ZM315.82 348.917V347.727L319.04 345.347C319.927 344.684 320.557 344.115 320.93 343.639C321.304 343.163 321.49 342.612 321.49 341.987C321.49 341.417 321.294 340.951 320.902 340.587C320.52 340.213 320.016 340.027 319.39 340.027C318.588 340.027 317.99 340.353 317.598 341.007C317.412 341.305 317.286 341.632 317.22 341.987H315.89C315.974 341.408 316.156 340.885 316.436 340.419C317.099 339.364 318.084 338.837 319.39 338.837C320.361 338.837 321.164 339.14 321.798 339.747C322.433 340.353 322.75 341.1 322.75 341.987C322.75 342.836 322.508 343.583 322.022 344.227C321.546 344.861 320.832 345.515 319.88 346.187L317.85 347.629L317.71 347.713V347.741L317.836 347.727H322.75V348.917H315.82ZM323.735 346.257H325.065C325.149 346.602 325.293 346.896 325.499 347.139C325.965 347.717 326.637 348.007 327.515 348.007C328.271 348.007 328.854 347.825 329.265 347.461C329.685 347.097 329.895 346.625 329.895 346.047C329.895 345.468 329.689 344.997 329.279 344.633C328.868 344.269 328.303 344.087 327.585 344.087H325.555V342.967L328.831 340.321L328.845 340.307H324.225V339.117H330.595V340.307L327.515 342.785L327.389 342.883L327.375 342.897H327.585C328.611 342.897 329.461 343.209 330.133 343.835C330.814 344.451 331.155 345.188 331.155 346.047C331.155 346.915 330.809 347.657 330.119 348.273C329.437 348.889 328.569 349.197 327.515 349.197C326.115 349.197 325.074 348.707 324.393 347.727C324.075 347.279 323.856 346.789 323.735 346.257ZM331.991 348.917L334.511 339.117H338.361L340.881 348.917H339.621L338.851 346.047H334.021L333.251 348.917H331.991ZM334.301 344.857H338.571L337.381 340.307H335.491L334.301 344.857Z" fill="white"/>
<g filter="url(#filter9_d_36_2563)">
<rect x="13" y="530" width="83.875" height="55.9167" rx="6.35417" fill="#4CE465"/>
</g>
<path d="M42.528 555.896C42.0893 555.467 41.87 554.935 41.87 554.3C41.87 553.665 42.0893 553.133 42.528 552.704C42.9667 552.275 43.5173 552.06 44.18 552.06C44.8427 552.06 45.3933 552.275 45.832 552.704C46.2707 553.133 46.49 553.665 46.49 554.3C46.49 554.935 46.2707 555.467 45.832 555.896C45.3933 556.325 44.8427 556.54 44.18 556.54C43.5173 556.54 42.9667 556.325 42.528 555.896ZM33.12 562V552.2H34.94L39.476 560.32L39.546 560.46H39.574L39.56 560.32V552.2H40.82V562H39L34.464 553.88L34.394 553.74H34.366L34.38 553.88V562H33.12ZM43.312 553.446C43.0973 553.661 42.99 553.945 42.99 554.3C42.99 554.655 43.0973 554.944 43.312 555.168C43.536 555.383 43.8253 555.49 44.18 555.49C44.5347 555.49 44.8193 555.383 45.034 555.168C45.258 554.944 45.37 554.655 45.37 554.3C45.37 553.945 45.258 553.661 45.034 553.446C44.8193 553.222 44.5347 553.11 44.18 553.11C43.8253 553.11 43.536 553.222 43.312 553.446ZM42.22 558.78V557.66H46.14V558.78H42.22ZM47.266 555.07V553.67L49.156 552.2H50.276V562H49.016V553.74L47.266 555.07ZM51.8204 562V560.81L55.0404 558.43C55.9271 557.767 56.5571 557.198 56.9304 556.722C57.3037 556.246 57.4904 555.695 57.4904 555.07C57.4904 554.501 57.2944 554.034 56.9024 553.67C56.5197 553.297 56.0157 553.11 55.3904 553.11C54.5877 553.11 53.9904 553.437 53.5984 554.09C53.4117 554.389 53.2857 554.715 53.2204 555.07H51.8904C51.9744 554.491 52.1564 553.969 52.4364 553.502C53.0991 552.447 54.0837 551.92 55.3904 551.92C56.3611 551.92 57.1637 552.223 57.7984 552.83C58.4331 553.437 58.7504 554.183 58.7504 555.07C58.7504 555.919 58.5077 556.666 58.0224 557.31C57.5464 557.945 56.8324 558.598 55.8804 559.27L53.8504 560.712L53.7104 560.796V560.824L53.8364 560.81H58.7504V562H51.8204ZM59.7348 559.34H61.0648C61.1488 559.685 61.2934 559.979 61.4988 560.222C61.9654 560.801 62.6374 561.09 63.5148 561.09C64.2708 561.09 64.8541 560.908 65.2648 560.544C65.6848 560.18 65.8948 559.709 65.8948 559.13C65.8948 558.551 65.6894 558.08 65.2788 557.716C64.8681 557.352 64.3034 557.17 63.5848 557.17H61.5548V556.05L64.8308 553.404L64.8448 553.39H60.2248V552.2H66.5948V553.39L63.5148 555.868L63.3888 555.966L63.3748 555.98H63.5848C64.6114 555.98 65.4608 556.293 66.1328 556.918C66.8141 557.534 67.1548 558.271 67.1548 559.13C67.1548 559.998 66.8094 560.74 66.1188 561.356C65.4374 561.972 64.5694 562.28 63.5148 562.28C62.1148 562.28 61.0741 561.79 60.3928 560.81C60.0754 560.362 59.8561 559.872 59.7348 559.34ZM67.9909 562L70.5109 552.2H74.3609L76.8809 562H75.6209L74.8509 559.13H70.0209L69.2509 562H67.9909ZM70.3009 557.94H74.5709L73.3809 553.39H71.4909L70.3009 557.94Z" fill="white"/>
<g filter="url(#filter10_d_36_2563)">
<rect x="13" y="743" width="83.875" height="55.9167" rx="6.35417" fill="#4CE465"/>
</g>
<path d="M42.528 768.896C42.0893 768.467 41.87 767.935 41.87 767.3C41.87 766.665 42.0893 766.133 42.528 765.704C42.9667 765.275 43.5173 765.06 44.18 765.06C44.8427 765.06 45.3933 765.275 45.832 765.704C46.2707 766.133 46.49 766.665 46.49 767.3C46.49 767.935 46.2707 768.467 45.832 768.896C45.3933 769.325 44.8427 769.54 44.18 769.54C43.5173 769.54 42.9667 769.325 42.528 768.896ZM33.12 775V765.2H34.94L39.476 773.32L39.546 773.46H39.574L39.56 773.32V765.2H40.82V775H39L34.464 766.88L34.394 766.74H34.366L34.38 766.88V775H33.12ZM43.312 766.446C43.0973 766.661 42.99 766.945 42.99 767.3C42.99 767.655 43.0973 767.944 43.312 768.168C43.536 768.383 43.8253 768.49 44.18 768.49C44.5347 768.49 44.8193 768.383 45.034 768.168C45.258 767.944 45.37 767.655 45.37 767.3C45.37 766.945 45.258 766.661 45.034 766.446C44.8193 766.222 44.5347 766.11 44.18 766.11C43.8253 766.11 43.536 766.222 43.312 766.446ZM42.22 771.78V770.66H46.14V771.78H42.22ZM47.266 768.07V766.67L49.156 765.2H50.276V775H49.016V766.74L47.266 768.07ZM51.8204 775V773.81L55.0404 771.43C55.9271 770.767 56.5571 770.198 56.9304 769.722C57.3037 769.246 57.4904 768.695 57.4904 768.07C57.4904 767.501 57.2944 767.034 56.9024 766.67C56.5197 766.297 56.0157 766.11 55.3904 766.11C54.5877 766.11 53.9904 766.437 53.5984 767.09C53.4117 767.389 53.2857 767.715 53.2204 768.07H51.8904C51.9744 767.491 52.1564 766.969 52.4364 766.502C53.0991 765.447 54.0837 764.92 55.3904 764.92C56.3611 764.92 57.1637 765.223 57.7984 765.83C58.4331 766.437 58.7504 767.183 58.7504 768.07C58.7504 768.919 58.5077 769.666 58.0224 770.31C57.5464 770.945 56.8324 771.598 55.8804 772.27L53.8504 773.712L53.7104 773.796V773.824L53.8364 773.81H58.7504V775H51.8204ZM59.7348 772.34H61.0648C61.1488 772.685 61.2934 772.979 61.4988 773.222C61.9654 773.801 62.6374 774.09 63.5148 774.09C64.2708 774.09 64.8541 773.908 65.2648 773.544C65.6848 773.18 65.8948 772.709 65.8948 772.13C65.8948 771.551 65.6894 771.08 65.2788 770.716C64.8681 770.352 64.3034 770.17 63.5848 770.17H61.5548V769.05L64.8308 766.404L64.8448 766.39H60.2248V765.2H66.5948V766.39L63.5148 768.868L63.3888 768.966L63.3748 768.98H63.5848C64.6114 768.98 65.4608 769.293 66.1328 769.918C66.8141 770.534 67.1548 771.271 67.1548 772.13C67.1548 772.998 66.8094 773.74 66.1188 774.356C65.4374 774.972 64.5694 775.28 63.5148 775.28C62.1148 775.28 61.0741 774.79 60.3928 773.81C60.0754 773.362 59.8561 772.872 59.7348 772.34ZM67.9909 775L70.5109 765.2H74.3609L76.8809 775H75.6209L74.8509 772.13H70.0209L69.2509 775H67.9909ZM70.3009 770.94H74.5709L73.3809 766.39H71.4909L70.3009 770.94Z" fill="white"/>
<rect x="13" y="459" width="83.875" height="55.9167" rx="6.35417" fill="#D9D9D9"/>
<path d="M42.528 484.813C42.0893 484.383 41.87 483.851 41.87 483.217C41.87 482.582 42.0893 482.05 42.528 481.621C42.9667 481.191 43.5173 480.977 44.18 480.977C44.8427 480.977 45.3933 481.191 45.832 481.621C46.2707 482.05 46.49 482.582 46.49 483.217C46.49 483.851 46.2707 484.383 45.832 484.813C45.3933 485.242 44.8427 485.457 44.18 485.457C43.5173 485.457 42.9667 485.242 42.528 484.813ZM33.12 490.917V481.117H34.94L39.476 489.237L39.546 489.377H39.574L39.56 489.237V481.117H40.82V490.917H39L34.464 482.797L34.394 482.657H34.366L34.38 482.797V490.917H33.12ZM43.312 482.363C43.0973 482.577 42.99 482.862 42.99 483.217C42.99 483.571 43.0973 483.861 43.312 484.085C43.536 484.299 43.8253 484.407 44.18 484.407C44.5347 484.407 44.8193 484.299 45.034 484.085C45.258 483.861 45.37 483.571 45.37 483.217C45.37 482.862 45.258 482.577 45.034 482.363C44.8193 482.139 44.5347 482.027 44.18 482.027C43.8253 482.027 43.536 482.139 43.312 482.363ZM42.22 487.697V486.577H46.14V487.697H42.22ZM47.266 483.987V482.587L49.156 481.117H50.276V490.917H49.016V482.657L47.266 483.987ZM51.8204 490.917V489.727L55.0404 487.347C55.9271 486.684 56.5571 486.115 56.9304 485.639C57.3037 485.163 57.4904 484.612 57.4904 483.987C57.4904 483.417 57.2944 482.951 56.9024 482.587C56.5197 482.213 56.0157 482.027 55.3904 482.027C54.5877 482.027 53.9904 482.353 53.5984 483.007C53.4117 483.305 53.2857 483.632 53.2204 483.987H51.8904C51.9744 483.408 52.1564 482.885 52.4364 482.419C53.0991 481.364 54.0837 480.837 55.3904 480.837C56.3611 480.837 57.1637 481.14 57.7984 481.747C58.4331 482.353 58.7504 483.1 58.7504 483.987C58.7504 484.836 58.5077 485.583 58.0224 486.227C57.5464 486.861 56.8324 487.515 55.8804 488.187L53.8504 489.629L53.7104 489.713V489.741L53.8364 489.727H58.7504V490.917H51.8204ZM59.7348 488.257H61.0648C61.1488 488.602 61.2934 488.896 61.4988 489.139C61.9654 489.717 62.6374 490.007 63.5148 490.007C64.2708 490.007 64.8541 489.825 65.2648 489.461C65.6848 489.097 65.8948 488.625 65.8948 488.047C65.8948 487.468 65.6894 486.997 65.2788 486.633C64.8681 486.269 64.3034 486.087 63.5848 486.087H61.5548V484.967L64.8308 482.321L64.8448 482.307H60.2248V481.117H66.5948V482.307L63.5148 484.785L63.3888 484.883L63.3748 484.897H63.5848C64.6114 484.897 65.4608 485.209 66.1328 485.835C66.8141 486.451 67.1548 487.188 67.1548 488.047C67.1548 488.915 66.8094 489.657 66.1188 490.273C65.4374 490.889 64.5694 491.197 63.5148 491.197C62.1148 491.197 61.0741 490.707 60.3928 489.727C60.0754 489.279 59.8561 488.789 59.7348 488.257ZM67.9909 490.917L70.5109 481.117H74.3609L76.8809 490.917H75.6209L74.8509 488.047H70.0209L69.2509 490.917H67.9909ZM70.3009 486.857H74.5709L73.3809 482.307H71.4909L70.3009 486.857Z" fill="white"/>
<g filter="url(#filter11_d_36_2563)">
<rect x="13" y="33" width="83.875" height="55.9167" rx="6.35417" fill="#4CE465"/>
</g>
<path d="M42.528 58.896C42.0893 58.4667 41.87 57.9347 41.87 57.3C41.87 56.6653 42.0893 56.1333 42.528 55.704C42.9667 55.2747 43.5173 55.06 44.18 55.06C44.8427 55.06 45.3933 55.2747 45.832 55.704C46.2707 56.1333 46.49 56.6653 46.49 57.3C46.49 57.9347 46.2707 58.4667 45.832 58.896C45.3933 59.3253 44.8427 59.54 44.18 59.54C43.5173 59.54 42.9667 59.3253 42.528 58.896ZM33.12 65V55.2H34.94L39.476 63.32L39.546 63.46H39.574L39.56 63.32V55.2H40.82V65H39L34.464 56.88L34.394 56.74H34.366L34.38 56.88V65H33.12ZM43.312 56.446C43.0973 56.6607 42.99 56.9453 42.99 57.3C42.99 57.6547 43.0973 57.944 43.312 58.168C43.536 58.3827 43.8253 58.49 44.18 58.49C44.5347 58.49 44.8193 58.3827 45.034 58.168C45.258 57.944 45.37 57.6547 45.37 57.3C45.37 56.9453 45.258 56.6607 45.034 56.446C44.8193 56.222 44.5347 56.11 44.18 56.11C43.8253 56.11 43.536 56.222 43.312 56.446ZM42.22 61.78V60.66H46.14V61.78H42.22ZM47.266 58.07V56.67L49.156 55.2H50.276V65H49.016V56.74L47.266 58.07ZM51.8204 65V63.81L55.0404 61.43C55.9271 60.7673 56.5571 60.198 56.9304 59.722C57.3037 59.246 57.4904 58.6953 57.4904 58.07C57.4904 57.5007 57.2944 57.034 56.9024 56.67C56.5197 56.2967 56.0157 56.11 55.3904 56.11C54.5877 56.11 53.9904 56.4367 53.5984 57.09C53.4117 57.3887 53.2857 57.7153 53.2204 58.07H51.8904C51.9744 57.4913 52.1564 56.9687 52.4364 56.502C53.0991 55.4473 54.0837 54.92 55.3904 54.92C56.3611 54.92 57.1637 55.2233 57.7984 55.83C58.4331 56.4367 58.7504 57.1833 58.7504 58.07C58.7504 58.9193 58.5077 59.666 58.0224 60.31C57.5464 60.9447 56.8324 61.598 55.8804 62.27L53.8504 63.712L53.7104 63.796V63.824L53.8364 63.81H58.7504V65H51.8204ZM59.7348 62.34H61.0648C61.1488 62.6853 61.2934 62.9793 61.4988 63.222C61.9654 63.8007 62.6374 64.09 63.5148 64.09C64.2708 64.09 64.8541 63.908 65.2648 63.544C65.6848 63.18 65.8948 62.7087 65.8948 62.13C65.8948 61.5513 65.6894 61.08 65.2788 60.716C64.8681 60.352 64.3034 60.17 63.5848 60.17H61.5548V59.05L64.8308 56.404L64.8448 56.39H60.2248V55.2H66.5948V56.39L63.5148 58.868L63.3888 58.966L63.3748 58.98H63.5848C64.6114 58.98 65.4608 59.2927 66.1328 59.918C66.8141 60.534 67.1548 61.2713 67.1548 62.13C67.1548 62.998 66.8094 63.74 66.1188 64.356C65.4374 64.972 64.5694 65.28 63.5148 65.28C62.1148 65.28 61.0741 64.79 60.3928 63.81C60.0754 63.362 59.8561 62.872 59.7348 62.34ZM67.9909 65L70.5109 55.2H74.3609L76.8809 65H75.6209L74.8509 62.13H70.0209L69.2509 65H67.9909ZM70.3009 60.94H74.5709L73.3809 56.39H71.4909L70.3009 60.94Z" fill="white"/>
<rect x="13" y="104" width="83.875" height="55.9167" rx="6.35417" fill="#D9D9D9"/>
<path d="M42.528 129.813C42.0893 129.383 41.87 128.851 41.87 128.217C41.87 127.582 42.0893 127.05 42.528 126.621C42.9667 126.191 43.5173 125.977 44.18 125.977C44.8427 125.977 45.3933 126.191 45.832 126.621C46.2707 127.05 46.49 127.582 46.49 128.217C46.49 128.851 46.2707 129.383 45.832 129.813C45.3933 130.242 44.8427 130.457 44.18 130.457C43.5173 130.457 42.9667 130.242 42.528 129.813ZM33.12 135.917V126.117H34.94L39.476 134.237L39.546 134.377H39.574L39.56 134.237V126.117H40.82V135.917H39L34.464 127.797L34.394 127.657H34.366L34.38 127.797V135.917H33.12ZM43.312 127.363C43.0973 127.577 42.99 127.862 42.99 128.217C42.99 128.571 43.0973 128.861 43.312 129.085C43.536 129.299 43.8253 129.407 44.18 129.407C44.5347 129.407 44.8193 129.299 45.034 129.085C45.258 128.861 45.37 128.571 45.37 128.217C45.37 127.862 45.258 127.577 45.034 127.363C44.8193 127.139 44.5347 127.027 44.18 127.027C43.8253 127.027 43.536 127.139 43.312 127.363ZM42.22 132.697V131.577H46.14V132.697H42.22ZM47.266 128.987V127.587L49.156 126.117H50.276V135.917H49.016V127.657L47.266 128.987ZM51.8204 135.917V134.727L55.0404 132.347C55.9271 131.684 56.5571 131.115 56.9304 130.639C57.3037 130.163 57.4904 129.612 57.4904 128.987C57.4904 128.417 57.2944 127.951 56.9024 127.587C56.5197 127.213 56.0157 127.027 55.3904 127.027C54.5877 127.027 53.9904 127.353 53.5984 128.007C53.4117 128.305 53.2857 128.632 53.2204 128.987H51.8904C51.9744 128.408 52.1564 127.885 52.4364 127.419C53.0991 126.364 54.0837 125.837 55.3904 125.837C56.3611 125.837 57.1637 126.14 57.7984 126.747C58.4331 127.353 58.7504 128.1 58.7504 128.987C58.7504 129.836 58.5077 130.583 58.0224 131.227C57.5464 131.861 56.8324 132.515 55.8804 133.187L53.8504 134.629L53.7104 134.713V134.741L53.8364 134.727H58.7504V135.917H51.8204ZM59.7348 133.257H61.0648C61.1488 133.602 61.2934 133.896 61.4988 134.139C61.9654 134.717 62.6374 135.007 63.5148 135.007C64.2708 135.007 64.8541 134.825 65.2648 134.461C65.6848 134.097 65.8948 133.625 65.8948 133.047C65.8948 132.468 65.6894 131.997 65.2788 131.633C64.8681 131.269 64.3034 131.087 63.5848 131.087H61.5548V129.967L64.8308 127.321L64.8448 127.307H60.2248V126.117H66.5948V127.307L63.5148 129.785L63.3888 129.883L63.3748 129.897H63.5848C64.6114 129.897 65.4608 130.209 66.1328 130.835C66.8141 131.451 67.1548 132.188 67.1548 133.047C67.1548 133.915 66.8094 134.657 66.1188 135.273C65.4374 135.889 64.5694 136.197 63.5148 136.197C62.1148 136.197 61.0741 135.707 60.3928 134.727C60.0754 134.279 59.8561 133.789 59.7348 133.257ZM67.9909 135.917L70.5109 126.117H74.3609L76.8809 135.917H75.6209L74.8509 133.047H70.0209L69.2509 135.917H67.9909ZM70.3009 131.857H74.5709L73.3809 127.307H71.4909L70.3009 131.857Z" fill="white"/>
<rect x="13" y="175" width="83.875" height="55.9167" rx="6.35417" fill="#D9D9D9"/>
<path d="M42.528 200.813C42.0893 200.383 41.87 199.851 41.87 199.217C41.87 198.582 42.0893 198.05 42.528 197.621C42.9667 197.191 43.5173 196.977 44.18 196.977C44.8427 196.977 45.3933 197.191 45.832 197.621C46.2707 198.05 46.49 198.582 46.49 199.217C46.49 199.851 46.2707 200.383 45.832 200.813C45.3933 201.242 44.8427 201.457 44.18 201.457C43.5173 201.457 42.9667 201.242 42.528 200.813ZM33.12 206.917V197.117H34.94L39.476 205.237L39.546 205.377H39.574L39.56 205.237V197.117H40.82V206.917H39L34.464 198.797L34.394 198.657H34.366L34.38 198.797V206.917H33.12ZM43.312 198.363C43.0973 198.577 42.99 198.862 42.99 199.217C42.99 199.571 43.0973 199.861 43.312 200.085C43.536 200.299 43.8253 200.407 44.18 200.407C44.5347 200.407 44.8193 200.299 45.034 200.085C45.258 199.861 45.37 199.571 45.37 199.217C45.37 198.862 45.258 198.577 45.034 198.363C44.8193 198.139 44.5347 198.027 44.18 198.027C43.8253 198.027 43.536 198.139 43.312 198.363ZM42.22 203.697V202.577H46.14V203.697H42.22ZM47.266 199.987V198.587L49.156 197.117H50.276V206.917H49.016V198.657L47.266 199.987ZM51.8204 206.917V205.727L55.0404 203.347C55.9271 202.684 56.5571 202.115 56.9304 201.639C57.3037 201.163 57.4904 200.612 57.4904 199.987C57.4904 199.417 57.2944 198.951 56.9024 198.587C56.5197 198.213 56.0157 198.027 55.3904 198.027C54.5877 198.027 53.9904 198.353 53.5984 199.007C53.4117 199.305 53.2857 199.632 53.2204 199.987H51.8904C51.9744 199.408 52.1564 198.885 52.4364 198.419C53.0991 197.364 54.0837 196.837 55.3904 196.837C56.3611 196.837 57.1637 197.14 57.7984 197.747C58.4331 198.353 58.7504 199.1 58.7504 199.987C58.7504 200.836 58.5077 201.583 58.0224 202.227C57.5464 202.861 56.8324 203.515 55.8804 204.187L53.8504 205.629L53.7104 205.713V205.741L53.8364 205.727H58.7504V206.917H51.8204ZM59.7348 204.257H61.0648C61.1488 204.602 61.2934 204.896 61.4988 205.139C61.9654 205.717 62.6374 206.007 63.5148 206.007C64.2708 206.007 64.8541 205.825 65.2648 205.461C65.6848 205.097 65.8948 204.625 65.8948 204.047C65.8948 203.468 65.6894 202.997 65.2788 202.633C64.8681 202.269 64.3034 202.087 63.5848 202.087H61.5548V200.967L64.8308 198.321L64.8448 198.307H60.2248V197.117H66.5948V198.307L63.5148 200.785L63.3888 200.883L63.3748 200.897H63.5848C64.6114 200.897 65.4608 201.209 66.1328 201.835C66.8141 202.451 67.1548 203.188 67.1548 204.047C67.1548 204.915 66.8094 205.657 66.1188 206.273C65.4374 206.889 64.5694 207.197 63.5148 207.197C62.1148 207.197 61.0741 206.707 60.3928 205.727C60.0754 205.279 59.8561 204.789 59.7348 204.257ZM67.9909 206.917L70.5109 197.117H74.3609L76.8809 206.917H75.6209L74.8509 204.047H70.0209L69.2509 206.917H67.9909ZM70.3009 202.857H74.5709L73.3809 198.307H71.4909L70.3009 202.857Z" fill="white"/>
<rect x="13" y="601" width="83.875" height="55.9167" rx="6.35417" fill="#D9D9D9"/>
<path d="M42.528 626.813C42.0893 626.383 41.87 625.851 41.87 625.217C41.87 624.582 42.0893 624.05 42.528 623.621C42.9667 623.191 43.5173 622.977 44.18 622.977C44.8427 622.977 45.3933 623.191 45.832 623.621C46.2707 624.05 46.49 624.582 46.49 625.217C46.49 625.851 46.2707 626.383 45.832 626.813C45.3933 627.242 44.8427 627.457 44.18 627.457C43.5173 627.457 42.9667 627.242 42.528 626.813ZM33.12 632.917V623.117H34.94L39.476 631.237L39.546 631.377H39.574L39.56 631.237V623.117H40.82V632.917H39L34.464 624.797L34.394 624.657H34.366L34.38 624.797V632.917H33.12ZM43.312 624.363C43.0973 624.577 42.99 624.862 42.99 625.217C42.99 625.571 43.0973 625.861 43.312 626.085C43.536 626.299 43.8253 626.407 44.18 626.407C44.5347 626.407 44.8193 626.299 45.034 626.085C45.258 625.861 45.37 625.571 45.37 625.217C45.37 624.862 45.258 624.577 45.034 624.363C44.8193 624.139 44.5347 624.027 44.18 624.027C43.8253 624.027 43.536 624.139 43.312 624.363ZM42.22 629.697V628.577H46.14V629.697H42.22ZM47.266 625.987V624.587L49.156 623.117H50.276V632.917H49.016V624.657L47.266 625.987ZM51.8204 632.917V631.727L55.0404 629.347C55.9271 628.684 56.5571 628.115 56.9304 627.639C57.3037 627.163 57.4904 626.612 57.4904 625.987C57.4904 625.417 57.2944 624.951 56.9024 624.587C56.5197 624.213 56.0157 624.027 55.3904 624.027C54.5877 624.027 53.9904 624.353 53.5984 625.007C53.4117 625.305 53.2857 625.632 53.2204 625.987H51.8904C51.9744 625.408 52.1564 624.885 52.4364 624.419C53.0991 623.364 54.0837 622.837 55.3904 622.837C56.3611 622.837 57.1637 623.14 57.7984 623.747C58.4331 624.353 58.7504 625.1 58.7504 625.987C58.7504 626.836 58.5077 627.583 58.0224 628.227C57.5464 628.861 56.8324 629.515 55.8804 630.187L53.8504 631.629L53.7104 631.713V631.741L53.8364 631.727H58.7504V632.917H51.8204ZM59.7348 630.257H61.0648C61.1488 630.602 61.2934 630.896 61.4988 631.139C61.9654 631.717 62.6374 632.007 63.5148 632.007C64.2708 632.007 64.8541 631.825 65.2648 631.461C65.6848 631.097 65.8948 630.625 65.8948 630.047C65.8948 629.468 65.6894 628.997 65.2788 628.633C64.8681 628.269 64.3034 628.087 63.5848 628.087H61.5548V626.967L64.8308 624.321L64.8448 624.307H60.2248V623.117H66.5948V624.307L63.5148 626.785L63.3888 626.883L63.3748 626.897H63.5848C64.6114 626.897 65.4608 627.209 66.1328 627.835C66.8141 628.451 67.1548 629.188 67.1548 630.047C67.1548 630.915 66.8094 631.657 66.1188 632.273C65.4374 632.889 64.5694 633.197 63.5148 633.197C62.1148 633.197 61.0741 632.707 60.3928 631.727C60.0754 631.279 59.8561 630.789 59.7348 630.257ZM67.9909 632.917L70.5109 623.117H74.3609L76.8809 632.917H75.6209L74.8509 630.047H70.0209L69.2509 632.917H67.9909ZM70.3009 628.857H74.5709L73.3809 624.307H71.4909L70.3009 628.857Z" fill="white"/>
<rect x="13" y="672" width="83.875" height="55.9167" rx="6.35417" fill="#D9D9D9"/>
<path d="M42.528 697.813C42.0893 697.383 41.87 696.851 41.87 696.217C41.87 695.582 42.0893 695.05 42.528 694.621C42.9667 694.191 43.5173 693.977 44.18 693.977C44.8427 693.977 45.3933 694.191 45.832 694.621C46.2707 695.05 46.49 695.582 46.49 696.217C46.49 696.851 46.2707 697.383 45.832 697.813C45.3933 698.242 44.8427 698.457 44.18 698.457C43.5173 698.457 42.9667 698.242 42.528 697.813ZM33.12 703.917V694.117H34.94L39.476 702.237L39.546 702.377H39.574L39.56 702.237V694.117H40.82V703.917H39L34.464 695.797L34.394 695.657H34.366L34.38 695.797V703.917H33.12ZM43.312 695.363C43.0973 695.577 42.99 695.862 42.99 696.217C42.99 696.571 43.0973 696.861 43.312 697.085C43.536 697.299 43.8253 697.407 44.18 697.407C44.5347 697.407 44.8193 697.299 45.034 697.085C45.258 696.861 45.37 696.571 45.37 696.217C45.37 695.862 45.258 695.577 45.034 695.363C44.8193 695.139 44.5347 695.027 44.18 695.027C43.8253 695.027 43.536 695.139 43.312 695.363ZM42.22 700.697V699.577H46.14V700.697H42.22ZM47.266 696.987V695.587L49.156 694.117H50.276V703.917H49.016V695.657L47.266 696.987ZM51.8204 703.917V702.727L55.0404 700.347C55.9271 699.684 56.5571 699.115 56.9304 698.639C57.3037 698.163 57.4904 697.612 57.4904 696.987C57.4904 696.417 57.2944 695.951 56.9024 695.587C56.5197 695.213 56.0157 695.027 55.3904 695.027C54.5877 695.027 53.9904 695.353 53.5984 696.007C53.4117 696.305 53.2857 696.632 53.2204 696.987H51.8904C51.9744 696.408 52.1564 695.885 52.4364 695.419C53.0991 694.364 54.0837 693.837 55.3904 693.837C56.3611 693.837 57.1637 694.14 57.7984 694.747C58.4331 695.353 58.7504 696.1 58.7504 696.987C58.7504 697.836 58.5077 698.583 58.0224 699.227C57.5464 699.861 56.8324 700.515 55.8804 701.187L53.8504 702.629L53.7104 702.713V702.741L53.8364 702.727H58.7504V703.917H51.8204ZM59.7348 701.257H61.0648C61.1488 701.602 61.2934 701.896 61.4988 702.139C61.9654 702.717 62.6374 703.007 63.5148 703.007C64.2708 703.007 64.8541 702.825 65.2648 702.461C65.6848 702.097 65.8948 701.625 65.8948 701.047C65.8948 700.468 65.6894 699.997 65.2788 699.633C64.8681 699.269 64.3034 699.087 63.5848 699.087H61.5548V697.967L64.8308 695.321L64.8448 695.307H60.2248V694.117H66.5948V695.307L63.5148 697.785L63.3888 697.883L63.3748 697.897H63.5848C64.6114 697.897 65.4608 698.209 66.1328 698.835C66.8141 699.451 67.1548 700.188 67.1548 701.047C67.1548 701.915 66.8094 702.657 66.1188 703.273C65.4374 703.889 64.5694 704.197 63.5148 704.197C62.1148 704.197 61.0741 703.707 60.3928 702.727C60.0754 702.279 59.8561 701.789 59.7348 701.257ZM67.9909 703.917L70.5109 694.117H74.3609L76.8809 703.917H75.6209L74.8509 701.047H70.0209L69.2509 703.917H67.9909ZM70.3009 699.857H74.5709L73.3809 695.307H71.4909L70.3009 699.857Z" fill="white"/>
<rect x="277" y="601" width="83.875" height="55.9167" rx="6.35417" fill="#D9D9D9"/>
<path d="M306.528 626.813C306.089 626.383 305.87 625.851 305.87 625.217C305.87 624.582 306.089 624.05 306.528 623.621C306.967 623.191 307.517 622.977 308.18 622.977C308.843 622.977 309.393 623.191 309.832 623.621C310.271 624.05 310.49 624.582 310.49 625.217C310.49 625.851 310.271 626.383 309.832 626.813C309.393 627.242 308.843 627.457 308.18 627.457C307.517 627.457 306.967 627.242 306.528 626.813ZM297.12 632.917V623.117H298.94L303.476 631.237L303.546 631.377H303.574L303.56 631.237V623.117H304.82V632.917H303L298.464 624.797L298.394 624.657H298.366L298.38 624.797V632.917H297.12ZM307.312 624.363C307.097 624.577 306.99 624.862 306.99 625.217C306.99 625.571 307.097 625.861 307.312 626.085C307.536 626.299 307.825 626.407 308.18 626.407C308.535 626.407 308.819 626.299 309.034 626.085C309.258 625.861 309.37 625.571 309.37 625.217C309.37 624.862 309.258 624.577 309.034 624.363C308.819 624.139 308.535 624.027 308.18 624.027C307.825 624.027 307.536 624.139 307.312 624.363ZM306.22 629.697V628.577H310.14V629.697H306.22ZM311.266 625.987V624.587L313.156 623.117H314.276V632.917H313.016V624.657L311.266 625.987ZM315.82 632.917V631.727L319.04 629.347C319.927 628.684 320.557 628.115 320.93 627.639C321.304 627.163 321.49 626.612 321.49 625.987C321.49 625.417 321.294 624.951 320.902 624.587C320.52 624.213 320.016 624.027 319.39 624.027C318.588 624.027 317.99 624.353 317.598 625.007C317.412 625.305 317.286 625.632 317.22 625.987H315.89C315.974 625.408 316.156 624.885 316.436 624.419C317.099 623.364 318.084 622.837 319.39 622.837C320.361 622.837 321.164 623.14 321.798 623.747C322.433 624.353 322.75 625.1 322.75 625.987C322.75 626.836 322.508 627.583 322.022 628.227C321.546 628.861 320.832 629.515 319.88 630.187L317.85 631.629L317.71 631.713V631.741L317.836 631.727H322.75V632.917H315.82ZM323.735 630.257H325.065C325.149 630.602 325.293 630.896 325.499 631.139C325.965 631.717 326.637 632.007 327.515 632.007C328.271 632.007 328.854 631.825 329.265 631.461C329.685 631.097 329.895 630.625 329.895 630.047C329.895 629.468 329.689 628.997 329.279 628.633C328.868 628.269 328.303 628.087 327.585 628.087H325.555V626.967L328.831 624.321L328.845 624.307H324.225V623.117H330.595V624.307L327.515 626.785L327.389 626.883L327.375 626.897H327.585C328.611 626.897 329.461 627.209 330.133 627.835C330.814 628.451 331.155 629.188 331.155 630.047C331.155 630.915 330.809 631.657 330.119 632.273C329.437 632.889 328.569 633.197 327.515 633.197C326.115 633.197 325.074 632.707 324.393 631.727C324.075 631.279 323.856 630.789 323.735 630.257ZM331.991 632.917L334.511 623.117H338.361L340.881 632.917H339.621L338.851 630.047H334.021L333.251 632.917H331.991ZM334.301 628.857H338.571L337.381 624.307H335.491L334.301 628.857Z" fill="white"/>
<rect x="277" y="672" width="83.875" height="55.9167" rx="6.35417" fill="#D9D9D9"/>
<path d="M306.528 697.813C306.089 697.383 305.87 696.851 305.87 696.217C305.87 695.582 306.089 695.05 306.528 694.621C306.967 694.191 307.517 693.977 308.18 693.977C308.843 693.977 309.393 694.191 309.832 694.621C310.271 695.05 310.49 695.582 310.49 696.217C310.49 696.851 310.271 697.383 309.832 697.813C309.393 698.242 308.843 698.457 308.18 698.457C307.517 698.457 306.967 698.242 306.528 697.813ZM297.12 703.917V694.117H298.94L303.476 702.237L303.546 702.377H303.574L303.56 702.237V694.117H304.82V703.917H303L298.464 695.797L298.394 695.657H298.366L298.38 695.797V703.917H297.12ZM307.312 695.363C307.097 695.577 306.99 695.862 306.99 696.217C306.99 696.571 307.097 696.861 307.312 697.085C307.536 697.299 307.825 697.407 308.18 697.407C308.535 697.407 308.819 697.299 309.034 697.085C309.258 696.861 309.37 696.571 309.37 696.217C309.37 695.862 309.258 695.577 309.034 695.363C308.819 695.139 308.535 695.027 308.18 695.027C307.825 695.027 307.536 695.139 307.312 695.363ZM306.22 700.697V699.577H310.14V700.697H306.22ZM311.266 696.987V695.587L313.156 694.117H314.276V703.917H313.016V695.657L311.266 696.987ZM315.82 703.917V702.727L319.04 700.347C319.927 699.684 320.557 699.115 320.93 698.639C321.304 698.163 321.49 697.612 321.49 696.987C321.49 696.417 321.294 695.951 320.902 695.587C320.52 695.213 320.016 695.027 319.39 695.027C318.588 695.027 317.99 695.353 317.598 696.007C317.412 696.305 317.286 696.632 317.22 696.987H315.89C315.974 696.408 316.156 695.885 316.436 695.419C317.099 694.364 318.084 693.837 319.39 693.837C320.361 693.837 321.164 694.14 321.798 694.747C322.433 695.353 322.75 696.1 322.75 696.987C322.75 697.836 322.508 698.583 322.022 699.227C321.546 699.861 320.832 700.515 319.88 701.187L317.85 702.629L317.71 702.713V702.741L317.836 702.727H322.75V703.917H315.82ZM323.735 701.257H325.065C325.149 701.602 325.293 701.896 325.499 702.139C325.965 702.717 326.637 703.007 327.515 703.007C328.271 703.007 328.854 702.825 329.265 702.461C329.685 702.097 329.895 701.625 329.895 701.047C329.895 700.468 329.689 699.997 329.279 699.633C328.868 699.269 328.303 699.087 327.585 699.087H325.555V697.967L328.831 695.321L328.845 695.307H324.225V694.117H330.595V695.307L327.515 697.785L327.389 697.883L327.375 697.897H327.585C328.611 697.897 329.461 698.209 330.133 698.835C330.814 699.451 331.155 700.188 331.155 701.047C331.155 701.915 330.809 702.657 330.119 703.273C329.437 703.889 328.569 704.197 327.515 704.197C326.115 704.197 325.074 703.707 324.393 702.727C324.075 702.279 323.856 701.789 323.735 701.257ZM331.991 703.917L334.511 694.117H338.361L340.881 703.917H339.621L338.851 701.047H334.021L333.251 703.917H331.991ZM334.301 699.857H338.571L337.381 695.307H335.491L334.301 699.857Z" fill="white"/>
<defs>
<filter id="filter0_d_36_2563" x="264.292" y="20.2917" width="109.292" height="81.3334" filterUnits="userSpaceOnUse" color-interpolation-filters="sRGB">
<feFlood flood-opacity="0" result="BackgroundImageFix"/>
<feColorMatrix in="SourceAlpha" type="matrix" values="0 0 0 0 0 0 0 0 0 0 0 0 0 0 0 0 0 0 127 0" result="hardAlpha"/>
<feOffset/>
<feGaussianBlur stdDeviation="6.35417"/>
<feComposite in2="hardAlpha" operator="out"/>
<feColorMatrix type="matrix" values="0 0 0 0 0.298039 0 0 0 0 0.894118 0 0 0 0 0.396078 0 0 0 0.6 0"/>
<feBlend mode="normal" in2="BackgroundImageFix" result="effect1_dropShadow_36_2563"/>
<feBlend mode="normal" in="SourceGraphic" in2="effect1_dropShadow_36_2563" result="shape"/>
</filter>
<filter id="filter1_d_36_2563" x="264.292" y="233.292" width="109.292" height="81.3334" filterUnits="userSpaceOnUse" color-interpolation-filters="sRGB">
<feFlood flood-opacity="0" result="BackgroundImageFix"/>
<feColorMatrix in="SourceAlpha" type="matrix" values="0 0 0 0 0 0 0 0 0 0 0 0 0 0 0 0 0 0 127 0" result="hardAlpha"/>
<feOffset/>
<feGaussianBlur stdDeviation="6.35417"/>
<feComposite in2="hardAlpha" operator="out"/>
<feColorMatrix type="matrix" values="0 0 0 0 0.298039 0 0 0 0 0.894118 0 0 0 0 0.396078 0 0 0 0.6 0"/>
<feBlend mode="normal" in2="BackgroundImageFix" result="effect1_dropShadow_36_2563"/>
<feBlend mode="normal" in="SourceGraphic" in2="effect1_dropShadow_36_2563" result="shape"/>
</filter>
<filter id="filter2_d_36_2563" x="264.292" y="375.292" width="109.292" height="81.3334" filterUnits="userSpaceOnUse" color-interpolation-filters="sRGB">
<feFlood flood-opacity="0" result="BackgroundImageFix"/>
<feColorMatrix in="SourceAlpha" type="matrix" values="0 0 0 0 0 0 0 0 0 0 0 0 0 0 0 0 0 0 127 0" result="hardAlpha"/>
<feOffset/>
<feGaussianBlur stdDeviation="6.35417"/>
<feComposite in2="hardAlpha" operator="out"/>
<feColorMatrix type="matrix" values="0 0 0 0 0.298039 0 0 0 0 0.894118 0 0 0 0 0.396078 0 0 0 0.6 0"/>
<feBlend mode="normal" in2="BackgroundImageFix" result="effect1_dropShadow_36_2563"/>
<feBlend mode="normal" in="SourceGraphic" in2="effect1_dropShadow_36_2563" result="shape"/>
</filter>
<filter id="filter3_d_36_2563" x="264.292" y="446.292" width="109.292" height="81.3334" filterUnits="userSpaceOnUse" color-interpolation-filters="sRGB">
<feFlood flood-opacity="0" result="BackgroundImageFix"/>
<feColorMatrix in="SourceAlpha" type="matrix" values="0 0 0 0 0 0 0 0 0 0 0 0 0 0 0 0 0 0 127 0" result="hardAlpha"/>
<feOffset/>
<feGaussianBlur stdDeviation="6.35417"/>
<feComposite in2="hardAlpha" operator="out"/>
<feColorMatrix type="matrix" values="0 0 0 0 0.298039 0 0 0 0 0.894118 0 0 0 0 0.396078 0 0 0 0.6 0"/>
<feBlend mode="normal" in2="BackgroundImageFix" result="effect1_dropShadow_36_2563"/>
<feBlend mode="normal" in="SourceGraphic" in2="effect1_dropShadow_36_2563" result="shape"/>
</filter>
<filter id="filter4_d_36_2563" x="264.292" y="517.292" width="109.292" height="81.3334" filterUnits="userSpaceOnUse" color-interpolation-filters="sRGB">
<feFlood flood-opacity="0" result="BackgroundImageFix"/>
<feColorMatrix in="SourceAlpha" type="matrix" values="0 0 0 0 0 0 0 0 0 0 0 0 0 0 0 0 0 0 127 0" result="hardAlpha"/>
<feOffset/>
<feGaussianBlur stdDeviation="6.35417"/>
<feComposite in2="hardAlpha" operator="out"/>
<feColorMatrix type="matrix" values="0 0 0 0 0.298039 0 0 0 0 0.894118 0 0 0 0 0.396078 0 0 0 0.6 0"/>
<feBlend mode="normal" in2="BackgroundImageFix" result="effect1_dropShadow_36_2563"/>
<feBlend mode="normal" in="SourceGraphic" in2="effect1_dropShadow_36_2563" result="shape"/>
</filter>
<filter id="filter5_d_36_2563" x="264.292" y="730.292" width="109.292" height="81.3334" filterUnits="userSpaceOnUse" color-interpolation-filters="sRGB">
<feFlood flood-opacity="0" result="BackgroundImageFix"/>
<feColorMatrix in="SourceAlpha" type="matrix" values="0 0 0 0 0 0 0 0 0 0 0 0 0 0 0 0 0 0 127 0" result="hardAlpha"/>
<feOffset/>
<feGaussianBlur stdDeviation="6.35417"/>
<feComposite in2="hardAlpha" operator="out"/>
<feColorMatrix type="matrix" values="0 0 0 0 0.298039 0 0 0 0 0.894118 0 0 0 0 0.396078 0 0 0 0.6 0"/>
<feBlend mode="normal" in2="BackgroundImageFix" result="effect1_dropShadow_36_2563"/>
<feBlend mode="normal" in="SourceGraphic" in2="effect1_dropShadow_36_2563" result="shape"/>
</filter>
<filter id="filter6_d_36_2563" x="0.291666" y="233.292" width="109.292" height="81.3334" filterUnits="userSpaceOnUse" color-interpolation-filters="sRGB">
<feFlood flood-opacity="0" result="BackgroundImageFix"/>
<feColorMatrix in="SourceAlpha" type="matrix" values="0 0 0 0 0 0 0 0 0 0 0 0 0 0 0 0 0 0 127 0" result="hardAlpha"/>
<feOffset/>
<feGaussianBlur stdDeviation="6.35417"/>
<feComposite in2="hardAlpha" operator="out"/>
<feColorMatrix type="matrix" values="0 0 0 0 0.298039 0 0 0 0 0.894118 0 0 0 0 0.396078 0 0 0 0.6 0"/>
<feBlend mode="normal" in2="BackgroundImageFix" result="effect1_dropShadow_36_2563"/>
<feBlend mode="normal" in="SourceGraphic" in2="effect1_dropShadow_36_2563" result="shape"/>
</filter>
<filter id="filter7_d_36_2563" x="0.291666" y="304.292" width="109.292" height="81.3334" filterUnits="userSpaceOnUse" color-interpolation-filters="sRGB">
<feFlood flood-opacity="0" result="BackgroundImageFix"/>
<feColorMatrix in="SourceAlpha" type="matrix" values="0 0 0 0 0 0 0 0 0 0 0 0 0 0 0 0 0 0 127 0" result="hardAlpha"/>
<feOffset/>
<feGaussianBlur stdDeviation="6.35417"/>
<feComposite in2="hardAlpha" operator="out"/>
<feColorMatrix type="matrix" values="0 0 0 0 0.298039 0 0 0 0 0.894118 0 0 0 0 0.396078 0 0 0 0.6 0"/>
<feBlend mode="normal" in2="BackgroundImageFix" result="effect1_dropShadow_36_2563"/>
<feBlend mode="normal" in="SourceGraphic" in2="effect1_dropShadow_36_2563" result="shape"/>
</filter>
<filter id="filter8_d_36_2563" x="0.291666" y="375.292" width="109.292" height="81.3334" filterUnits="userSpaceOnUse" color-interpolation-filters="sRGB">
<feFlood flood-opacity="0" result="BackgroundImageFix"/>
<feColorMatrix in="SourceAlpha" type="matrix" values="0 0 0 0 0 0 0 0 0 0 0 0 0 0 0 0 0 0 127 0" result="hardAlpha"/>
<feOffset/>
<feGaussianBlur stdDeviation="6.35417"/>
<feComposite in2="hardAlpha" operator="out"/>
<feColorMatrix type="matrix" values="0 0 0 0 0.298039 0 0 0 0 0.894118 0 0 0 0 0.396078 0 0 0 0.6 0"/>
<feBlend mode="normal" in2="BackgroundImageFix" result="effect1_dropShadow_36_2563"/>
<feBlend mode="normal" in="SourceGraphic" in2="effect1_dropShadow_36_2563" result="shape"/>
</filter>
<filter id="filter9_d_36_2563" x="0.291666" y="517.292" width="109.292" height="81.3334" filterUnits="userSpaceOnUse" color-interpolation-filters="sRGB">
<feFlood flood-opacity="0" result="BackgroundImageFix"/>
<feColorMatrix in="SourceAlpha" type="matrix" values="0 0 0 0 0 0 0 0 0 0 0 0 0 0 0 0 0 0 127 0" result="hardAlpha"/>
<feOffset/>
<feGaussianBlur stdDeviation="6.35417"/>
<feComposite in2="hardAlpha" operator="out"/>
<feColorMatrix type="matrix" values="0 0 0 0 0.298039 0 0 0 0 0.894118 0 0 0 0 0.396078 0 0 0 0.6 0"/>
<feBlend mode="normal" in2="BackgroundImageFix" result="effect1_dropShadow_36_2563"/>
<feBlend mode="normal" in="SourceGraphic" in2="effect1_dropShadow_36_2563" result="shape"/>
</filter>
<filter id="filter10_d_36_2563" x="0.291666" y="730.292" width="109.292" height="81.3334" filterUnits="userSpaceOnUse" color-interpolation-filters="sRGB">
<feFlood flood-opacity="0" result="BackgroundImageFix"/>
<feColorMatrix in="SourceAlpha" type="matrix" values="0 0 0 0 0 0 0 0 0 0 0 0 0 0 0 0 0 0 127 0" result="hardAlpha"/>
<feOffset/>
<feGaussianBlur stdDeviation="6.35417"/>
<feComposite in2="hardAlpha" operator="out"/>
<feColorMatrix type="matrix" values="0 0 0 0 0.298039 0 0 0 0 0.894118 0 0 0 0 0.396078 0 0 0 0.6 0"/>
<feBlend mode="normal" in2="BackgroundImageFix" result="effect1_dropShadow_36_2563"/>
<feBlend mode="normal" in="SourceGraphic" in2="effect1_dropShadow_36_2563" result="shape"/>
</filter>
<filter id="filter11_d_36_2563" x="0.291666" y="20.2917" width="109.292" height="81.3334" filterUnits="userSpaceOnUse" color-interpolation-filters="sRGB">
<feFlood flood-opacity="0" result="BackgroundImageFix"/>
<feColorMatrix in="SourceAlpha" type="matrix" values="0 0 0 0 0 0 0 0 0 0 0 0 0 0 0 0 0 0 127 0" result="hardAlpha"/>
<feOffset/>
<feGaussianBlur stdDeviation="6.35417"/>
<feComposite in2="hardAlpha" operator="out"/>
<feColorMatrix type="matrix" values="0 0 0 0 0.298039 0 0 0 0 0.894118 0 0 0 0 0.396078 0 0 0 0.6 0"/>
<feBlend mode="normal" in2="BackgroundImageFix" result="effect1_dropShadow_36_2563"/>
<feBlend mode="normal" in="SourceGraphic" in2="effect1_dropShadow_36_2563" result="shape"/>
</filter>
</defs>
</svg>
