<svg width="28" height="31" viewBox="0 0 28 31" fill="none" xmlns="http://www.w3.org/2000/svg">
<path d="M14.7113 0.3096C13.7796 -0.041504 12.7466 -0.00810485 11.8395 0.40245C10.9324 0.813005 10.2255 1.56709 9.87443 2.4988L9.21251 4.25532C8.86141 5.18704 8.89481 6.22007 9.30536 7.12716C9.71592 8.03425 10.47 8.7411 11.4017 9.09221C12.3334 9.44331 13.3665 9.40991 14.2736 8.99936C15.1806 8.5888 15.8875 7.83472 16.2386 6.903L16.9005 5.14648C17.2516 4.21477 17.2182 3.18173 16.8077 2.27464C16.3971 1.36755 15.643 0.660705 14.7113 0.3096ZM23.4939 3.6192C22.5622 3.2681 21.5292 3.3015 20.6221 3.71205C19.715 4.12261 19.0081 4.87669 18.657 5.8084L17.9951 7.56492C17.644 8.49664 17.6774 9.52967 18.088 10.4368C18.4985 11.3439 19.2526 12.0507 20.1843 12.4018C21.116 12.7529 22.1491 12.7195 23.0562 12.309C23.9633 11.8984 24.6701 11.1443 25.0212 10.2126L25.6831 8.45608C26.0342 7.52437 26.0008 6.49133 25.5903 5.58424C25.1797 4.67715 24.4256 3.97031 23.4939 3.6192ZM6.13215 7.10645C5.20044 6.75534 4.1674 6.78874 3.26031 7.1993C2.35322 7.60985 1.64637 8.36393 1.29527 9.29565L0.96431 10.1739C0.613206 11.1056 0.646606 12.1387 1.05716 13.0457C1.46772 13.9528 2.2218 14.6597 3.15351 15.0108C4.08523 15.3619 5.11826 15.3285 6.02535 14.9179C6.93244 14.5074 7.63929 13.7533 7.99039 12.8216L8.32135 11.9433C8.67246 11.0116 8.63906 9.97858 8.22851 9.07149C7.81795 8.1644 7.06387 7.45755 6.13215 7.10645ZM25.4539 14.3876C24.5222 14.0365 23.4891 14.0699 22.582 14.4804C21.675 14.891 20.9681 15.6451 20.617 16.5768L20.286 17.455C19.9349 18.3867 19.9683 19.4198 20.3789 20.3269C20.7894 21.234 21.5435 21.9408 22.4752 22.2919C23.407 22.643 24.44 22.6096 25.3471 22.1991C26.2542 21.7885 26.961 21.0344 27.3121 20.1027L27.6431 19.2244C27.9942 18.2927 27.9608 17.2597 27.5502 16.3526C27.1397 15.4455 26.3856 14.7387 25.4539 14.3876ZM17.6651 17.027C17.4205 16.3092 17.02 15.6545 16.4925 15.1098C15.9649 14.5651 15.3233 14.1439 14.6137 13.8765C13.9041 13.6091 13.1441 13.5021 12.3883 13.5632C11.6324 13.6243 10.8995 13.8519 10.242 14.2297L2.77306 18.5223C-0.321612 20.2988 0.0486909 24.8735 3.38608 26.1312C3.86385 26.3112 4.3763 26.378 4.88214 26.3239L5.63363 26.246C7.02908 26.1013 8.43905 26.2836 9.75186 26.7783C11.0647 27.273 12.2443 28.0666 13.1972 29.0962L13.7104 29.6507C14.0547 30.0251 14.4838 30.3132 14.9616 30.4932C18.2989 31.7509 21.5963 28.5583 20.4454 25.1819L17.6651 17.027Z" fill="white" fill-opacity="0.7"/>
</svg>
