<svg width="373" height="102" viewBox="0 0 373 102" fill="none" xmlns="http://www.w3.org/2000/svg">
<line x1="15.999" y1="81" x2="352.001" y2="81" stroke="white" stroke-dasharray="8 8"/>
<g filter="url(#filter0_d_9_8566)">
<path d="M19.5 53.5001C33.3333 35.1668 66.9 0.200128 90.5 7.00013C120 15.5001 116 33.5 149 16.5C182 -0.500003 191.5 16 198.5 29C205.5 42 212.5 62 234 43C255.5 24 266.5 39.5003 271 53.5001C275.5 67.5 319 73 319 24C319 9.50004 336.5 0.5 353 18" stroke="white" stroke-width="2.02703" stroke-linecap="round"/>
</g>
<g filter="url(#filter1_d_9_8566)">
<circle cx="244.5" cy="36.5" r="8.5" fill="white"/>
</g>
<circle cx="244.5" cy="36.5" r="4.5" fill="#659BF4"/>
<line x1="245" y1="42.9922" x2="245" y2="75.0078" stroke="url(#paint0_linear_9_8566)" stroke-width="3"/>
<path d="M230.275 92.83V91.4L231.705 90.3H232.86V98H231.595V91.84L230.275 92.83ZM233.961 98V96.79L236.59 94.931C237.162 94.5203 237.573 94.139 237.822 93.787C238.071 93.435 238.196 93.061 238.196 92.665C238.196 92.247 238.068 91.9133 237.811 91.664C237.554 91.4147 237.206 91.29 236.766 91.29C236.223 91.29 235.816 91.51 235.545 91.95C235.428 92.1407 235.34 92.3607 235.281 92.61H233.961C234.027 92.1407 234.17 91.719 234.39 91.345C234.911 90.5017 235.703 90.08 236.766 90.08C237.58 90.08 238.24 90.322 238.746 90.806C239.259 91.2827 239.516 91.884 239.516 92.61C239.516 93.2407 239.355 93.809 239.032 94.315C238.709 94.8137 238.192 95.3087 237.481 95.8L236.381 96.57L235.886 96.79V96.845L236.546 96.79H239.516V98H233.961ZM240.618 93.655C240.471 93.5083 240.398 93.325 240.398 93.105C240.398 92.885 240.471 92.7017 240.618 92.555C240.765 92.4083 240.948 92.335 241.168 92.335C241.388 92.335 241.571 92.4083 241.718 92.555C241.865 92.7017 241.938 92.885 241.938 93.105C241.938 93.325 241.865 93.5083 241.718 93.655C241.571 93.8017 241.388 93.875 241.168 93.875C240.948 93.875 240.765 93.8017 240.618 93.655ZM240.618 97.945C240.471 97.7983 240.398 97.615 240.398 97.395C240.398 97.175 240.471 96.9917 240.618 96.845C240.765 96.6983 240.948 96.625 241.168 96.625C241.388 96.625 241.571 96.6983 241.718 96.845C241.865 96.9917 241.938 97.175 241.938 97.395C241.938 97.615 241.865 97.7983 241.718 97.945C241.571 98.0917 241.388 98.165 241.168 98.165C240.948 98.165 240.765 98.0917 240.618 97.945ZM243.915 97.076C243.218 96.3133 242.87 95.338 242.87 94.15C242.87 92.962 243.218 91.9867 243.915 91.224C244.612 90.4613 245.455 90.08 246.445 90.08C247.435 90.08 248.278 90.4613 248.975 91.224C249.672 91.9867 250.02 92.962 250.02 94.15C250.02 95.338 249.672 96.3133 248.975 97.076C248.278 97.8387 247.435 98.22 246.445 98.22C245.455 98.22 244.612 97.8387 243.915 97.076ZM244.817 92.038C244.399 92.5367 244.19 93.2407 244.19 94.15C244.19 95.0593 244.399 95.7633 244.817 96.262C245.242 96.7607 245.785 97.01 246.445 97.01C247.105 97.01 247.644 96.7607 248.062 96.262C248.487 95.7633 248.7 95.0593 248.7 94.15C248.7 93.2407 248.487 92.5367 248.062 92.038C247.644 91.5393 247.105 91.29 246.445 91.29C245.785 91.29 245.242 91.5393 244.817 92.038ZM252.058 97.076C251.361 96.3133 251.013 95.338 251.013 94.15C251.013 92.962 251.361 91.9867 252.058 91.224C252.754 90.4613 253.598 90.08 254.588 90.08C255.578 90.08 256.421 90.4613 257.118 91.224C257.814 91.9867 258.163 92.962 258.163 94.15C258.163 95.338 257.814 96.3133 257.118 97.076C256.421 97.8387 255.578 98.22 254.588 98.22C253.598 98.22 252.754 97.8387 252.058 97.076ZM252.96 92.038C252.542 92.5367 252.333 93.2407 252.333 94.15C252.333 95.0593 252.542 95.7633 252.96 96.262C253.385 96.7607 253.928 97.01 254.588 97.01C255.248 97.01 255.787 96.7607 256.205 96.262C256.63 95.7633 256.843 95.0593 256.843 94.15C256.843 93.2407 256.63 92.5367 256.205 92.038C255.787 91.5393 255.248 91.29 254.588 91.29C253.928 91.29 253.385 91.5393 252.96 92.038Z" fill="white"/>
<path d="M143.44 95.91C143.44 95.2427 143.697 94.711 144.21 94.315C144.43 94.161 144.687 94.0437 144.98 93.963V93.897C144.753 93.809 144.551 93.688 144.375 93.534C143.972 93.1893 143.77 92.7347 143.77 92.17C143.77 91.5907 144.016 91.0993 144.507 90.696C145.006 90.2853 145.677 90.08 146.52 90.08C147.363 90.08 148.031 90.2853 148.522 90.696C149.021 91.0993 149.27 91.5907 149.27 92.17C149.27 92.72 149.068 93.1747 148.665 93.534C148.474 93.688 148.273 93.809 148.06 93.897V93.963C148.339 94.0363 148.595 94.1573 148.83 94.326C149.343 94.722 149.6 95.25 149.6 95.91C149.6 96.548 149.321 97.0943 148.764 97.549C148.214 97.9963 147.466 98.22 146.52 98.22C145.574 98.22 144.822 97.9963 144.265 97.549C143.715 97.0943 143.44 96.548 143.44 95.91ZM145.09 92.28C145.09 92.6027 145.215 92.8667 145.464 93.072C145.713 93.2773 146.065 93.38 146.52 93.38C146.975 93.38 147.327 93.2773 147.576 93.072C147.825 92.8667 147.95 92.6027 147.95 92.28C147.95 91.9867 147.822 91.741 147.565 91.543C147.316 91.3377 146.967 91.235 146.52 91.235C146.073 91.235 145.721 91.3377 145.464 91.543C145.215 91.741 145.09 91.9867 145.09 92.28ZM145.222 94.909C144.914 95.151 144.76 95.448 144.76 95.8C144.76 96.152 144.914 96.4527 145.222 96.702C145.537 96.944 145.97 97.065 146.52 97.065C147.07 97.065 147.499 96.944 147.807 96.702C148.122 96.4527 148.28 96.152 148.28 95.8C148.28 95.448 148.122 95.151 147.807 94.909C147.499 94.6597 147.07 94.535 146.52 94.535C145.97 94.535 145.537 94.6597 145.222 94.909ZM150.696 93.655C150.549 93.5083 150.476 93.325 150.476 93.105C150.476 92.885 150.549 92.7017 150.696 92.555C150.843 92.4083 151.026 92.335 151.246 92.335C151.466 92.335 151.649 92.4083 151.796 92.555C151.943 92.7017 152.016 92.885 152.016 93.105C152.016 93.325 151.943 93.5083 151.796 93.655C151.649 93.8017 151.466 93.875 151.246 93.875C151.026 93.875 150.843 93.8017 150.696 93.655ZM150.696 97.945C150.549 97.7983 150.476 97.615 150.476 97.395C150.476 97.175 150.549 96.9917 150.696 96.845C150.843 96.6983 151.026 96.625 151.246 96.625C151.466 96.625 151.649 96.6983 151.796 96.845C151.943 96.9917 152.016 97.175 152.016 97.395C152.016 97.615 151.943 97.7983 151.796 97.945C151.649 98.0917 151.466 98.165 151.246 98.165C151.026 98.165 150.843 98.0917 150.696 97.945ZM153.993 97.076C153.296 96.3133 152.948 95.338 152.948 94.15C152.948 92.962 153.296 91.9867 153.993 91.224C154.69 90.4613 155.533 90.08 156.523 90.08C157.513 90.08 158.356 90.4613 159.053 91.224C159.75 91.9867 160.098 92.962 160.098 94.15C160.098 95.338 159.75 96.3133 159.053 97.076C158.356 97.8387 157.513 98.22 156.523 98.22C155.533 98.22 154.69 97.8387 153.993 97.076ZM154.895 92.038C154.477 92.5367 154.268 93.2407 154.268 94.15C154.268 95.0593 154.477 95.7633 154.895 96.262C155.32 96.7607 155.863 97.01 156.523 97.01C157.183 97.01 157.722 96.7607 158.14 96.262C158.565 95.7633 158.778 95.0593 158.778 94.15C158.778 93.2407 158.565 92.5367 158.14 92.038C157.722 91.5393 157.183 91.29 156.523 91.29C155.863 91.29 155.32 91.5393 154.895 92.038ZM162.136 97.076C161.439 96.3133 161.091 95.338 161.091 94.15C161.091 92.962 161.439 91.9867 162.136 91.224C162.832 90.4613 163.676 90.08 164.666 90.08C165.656 90.08 166.499 90.4613 167.196 91.224C167.892 91.9867 168.241 92.962 168.241 94.15C168.241 95.338 167.892 96.3133 167.196 97.076C166.499 97.8387 165.656 98.22 164.666 98.22C163.676 98.22 162.832 97.8387 162.136 97.076ZM163.038 92.038C162.62 92.5367 162.411 93.2407 162.411 94.15C162.411 95.0593 162.62 95.7633 163.038 96.262C163.463 96.7607 164.006 97.01 164.666 97.01C165.326 97.01 165.865 96.7607 166.283 96.262C166.708 95.7633 166.921 95.0593 166.921 94.15C166.921 93.2407 166.708 92.5367 166.283 92.038C165.865 91.5393 165.326 91.29 164.666 91.29C164.006 91.29 163.463 91.5393 163.038 92.038Z" fill="white"/>
<path d="M56.165 96.46V95.25L58.75 90.3H60.125L57.54 95.25H60.07V93.38H60.125H61.335V95.25H62.435V96.46H61.335V98H60.07V96.46H56.165ZM63.0946 93.655C62.9479 93.5083 62.8746 93.325 62.8746 93.105C62.8746 92.885 62.9479 92.7017 63.0946 92.555C63.2412 92.4083 63.4246 92.335 63.6446 92.335C63.8646 92.335 64.0479 92.4083 64.1946 92.555C64.3412 92.7017 64.4146 92.885 64.4146 93.105C64.4146 93.325 64.3412 93.5083 64.1946 93.655C64.0479 93.8017 63.8646 93.875 63.6446 93.875C63.4246 93.875 63.2412 93.8017 63.0946 93.655ZM63.0946 97.945C62.9479 97.7983 62.8746 97.615 62.8746 97.395C62.8746 97.175 62.9479 96.9917 63.0946 96.845C63.2412 96.6983 63.4246 96.625 63.6446 96.625C63.8646 96.625 64.0479 96.6983 64.1946 96.845C64.3412 96.9917 64.4146 97.175 64.4146 97.395C64.4146 97.615 64.3412 97.7983 64.1946 97.945C64.0479 98.0917 63.8646 98.165 63.6446 98.165C63.4246 98.165 63.2412 98.0917 63.0946 97.945ZM66.3916 97.076C65.6949 96.3133 65.3466 95.338 65.3466 94.15C65.3466 92.962 65.6949 91.9867 66.3916 91.224C67.0882 90.4613 67.9316 90.08 68.9216 90.08C69.9116 90.08 70.7549 90.4613 71.4516 91.224C72.1482 91.9867 72.4966 92.962 72.4966 94.15C72.4966 95.338 72.1482 96.3133 71.4516 97.076C70.7549 97.8387 69.9116 98.22 68.9216 98.22C67.9316 98.22 67.0882 97.8387 66.3916 97.076ZM67.2936 92.038C66.8756 92.5367 66.6666 93.2407 66.6666 94.15C66.6666 95.0593 66.8756 95.7633 67.2936 96.262C67.7189 96.7607 68.2616 97.01 68.9216 97.01C69.5816 97.01 70.1206 96.7607 70.5386 96.262C70.9639 95.7633 71.1766 95.0593 71.1766 94.15C71.1766 93.2407 70.9639 92.5367 70.5386 92.038C70.1206 91.5393 69.5816 91.29 68.9216 91.29C68.2616 91.29 67.7189 91.5393 67.2936 92.038ZM74.5341 97.076C73.8375 96.3133 73.4891 95.338 73.4891 94.15C73.4891 92.962 73.8375 91.9867 74.5341 91.224C75.2308 90.4613 76.0741 90.08 77.0641 90.08C78.0541 90.08 78.8975 90.4613 79.5941 91.224C80.2908 91.9867 80.6391 92.962 80.6391 94.15C80.6391 95.338 80.2908 96.3133 79.5941 97.076C78.8975 97.8387 78.0541 98.22 77.0641 98.22C76.0741 98.22 75.2308 97.8387 74.5341 97.076ZM75.4361 92.038C75.0181 92.5367 74.8091 93.2407 74.8091 94.15C74.8091 95.0593 75.0181 95.7633 75.4361 96.262C75.8615 96.7607 76.4041 97.01 77.0641 97.01C77.7241 97.01 78.2631 96.7607 78.6811 96.262C79.1065 95.7633 79.3191 95.0593 79.3191 94.15C79.3191 93.2407 79.1065 92.5367 78.6811 92.038C78.2631 91.5393 77.7241 91.29 77.0641 91.29C76.4041 91.29 75.8615 91.5393 75.4361 92.038Z" fill="white"/>
<path d="M320.275 92.83V91.4L321.705 90.3H322.86V98H321.595V91.84L320.275 92.83ZM324.016 95.47C324.016 95.118 324.093 94.7513 324.247 94.37C324.408 93.9813 324.562 93.677 324.709 93.457C324.863 93.2297 325.072 92.9473 325.336 92.61L327.096 90.3H328.581L326.92 92.467L326.436 92.885V92.94L326.656 92.863C326.876 92.8043 327.114 92.775 327.371 92.775C328.09 92.775 328.698 93.0353 329.197 93.556C329.703 94.0693 329.956 94.7073 329.956 95.47C329.956 96.2473 329.677 96.9 329.12 97.428C328.563 97.956 327.851 98.22 326.986 98.22C326.121 98.22 325.409 97.956 324.852 97.428C324.295 96.9 324.016 96.2473 324.016 95.47ZM325.787 94.326C325.486 94.6193 325.336 95.0007 325.336 95.47C325.336 95.9393 325.486 96.3243 325.787 96.625C326.088 96.9183 326.487 97.065 326.986 97.065C327.485 97.065 327.884 96.9183 328.185 96.625C328.486 96.3243 328.636 95.9393 328.636 95.47C328.636 95.0007 328.486 94.6193 328.185 94.326C327.884 94.0253 327.485 93.875 326.986 93.875C326.487 93.875 326.088 94.0253 325.787 94.326ZM331.058 93.655C330.912 93.5083 330.838 93.325 330.838 93.105C330.838 92.885 330.912 92.7017 331.058 92.555C331.205 92.4083 331.388 92.335 331.608 92.335C331.828 92.335 332.012 92.4083 332.158 92.555C332.305 92.7017 332.378 92.885 332.378 93.105C332.378 93.325 332.305 93.5083 332.158 93.655C332.012 93.8017 331.828 93.875 331.608 93.875C331.388 93.875 331.205 93.8017 331.058 93.655ZM331.058 97.945C330.912 97.7983 330.838 97.615 330.838 97.395C330.838 97.175 330.912 96.9917 331.058 96.845C331.205 96.6983 331.388 96.625 331.608 96.625C331.828 96.625 332.012 96.6983 332.158 96.845C332.305 96.9917 332.378 97.175 332.378 97.395C332.378 97.615 332.305 97.7983 332.158 97.945C332.012 98.0917 331.828 98.165 331.608 98.165C331.388 98.165 331.205 98.0917 331.058 97.945ZM334.355 97.076C333.659 96.3133 333.31 95.338 333.31 94.15C333.31 92.962 333.659 91.9867 334.355 91.224C335.052 90.4613 335.895 90.08 336.885 90.08C337.875 90.08 338.719 90.4613 339.415 91.224C340.112 91.9867 340.46 92.962 340.46 94.15C340.46 95.338 340.112 96.3133 339.415 97.076C338.719 97.8387 337.875 98.22 336.885 98.22C335.895 98.22 335.052 97.8387 334.355 97.076ZM335.257 92.038C334.839 92.5367 334.63 93.2407 334.63 94.15C334.63 95.0593 334.839 95.7633 335.257 96.262C335.683 96.7607 336.225 97.01 336.885 97.01C337.545 97.01 338.084 96.7607 338.502 96.262C338.928 95.7633 339.14 95.0593 339.14 94.15C339.14 93.2407 338.928 92.5367 338.502 92.038C338.084 91.5393 337.545 91.29 336.885 91.29C336.225 91.29 335.683 91.5393 335.257 92.038ZM342.498 97.076C341.801 96.3133 341.453 95.338 341.453 94.15C341.453 92.962 341.801 91.9867 342.498 91.224C343.195 90.4613 344.038 90.08 345.028 90.08C346.018 90.08 346.861 90.4613 347.558 91.224C348.255 91.9867 348.603 92.962 348.603 94.15C348.603 95.338 348.255 96.3133 347.558 97.076C346.861 97.8387 346.018 98.22 345.028 98.22C344.038 98.22 343.195 97.8387 342.498 97.076ZM343.4 92.038C342.982 92.5367 342.773 93.2407 342.773 94.15C342.773 95.0593 342.982 95.7633 343.4 96.262C343.825 96.7607 344.368 97.01 345.028 97.01C345.688 97.01 346.227 96.7607 346.645 96.262C347.07 95.7633 347.283 95.0593 347.283 94.15C347.283 93.2407 347.07 92.5367 346.645 92.038C346.227 91.5393 345.688 91.29 345.028 91.29C344.368 91.29 343.825 91.5393 343.4 92.038Z" fill="white"/>
<defs>
<filter id="filter0_d_9_8566" x="0.486328" y="0.121582" width="371.527" height="95.1687" filterUnits="userSpaceOnUse" color-interpolation-filters="sRGB">
<feFlood flood-opacity="0" result="BackgroundImageFix"/>
<feColorMatrix in="SourceAlpha" type="matrix" values="0 0 0 0 0 0 0 0 0 0 0 0 0 0 0 0 0 0 127 0" result="hardAlpha"/>
<feOffset dy="13"/>
<feGaussianBlur stdDeviation="9"/>
<feComposite in2="hardAlpha" operator="out"/>
<feColorMatrix type="matrix" values="0 0 0 0 1 0 0 0 0 1 0 0 0 0 1 0 0 0 1 0"/>
<feBlend mode="normal" in2="BackgroundImageFix" result="effect1_dropShadow_9_8566"/>
<feBlend mode="normal" in="SourceGraphic" in2="effect1_dropShadow_9_8566" result="shape"/>
</filter>
<filter id="filter1_d_9_8566" x="221" y="13" width="45" height="45" filterUnits="userSpaceOnUse" color-interpolation-filters="sRGB">
<feFlood flood-opacity="0" result="BackgroundImageFix"/>
<feColorMatrix in="SourceAlpha" type="matrix" values="0 0 0 0 0 0 0 0 0 0 0 0 0 0 0 0 0 0 127 0" result="hardAlpha"/>
<feMorphology radius="2" operator="dilate" in="SourceAlpha" result="effect1_dropShadow_9_8566"/>
<feOffset dx="-1" dy="-1"/>
<feGaussianBlur stdDeviation="6"/>
<feComposite in2="hardAlpha" operator="out"/>
<feColorMatrix type="matrix" values="0 0 0 0 1 0 0 0 0 1 0 0 0 0 1 0 0 0 0.4 0"/>
<feBlend mode="normal" in2="BackgroundImageFix" result="effect1_dropShadow_9_8566"/>
<feBlend mode="normal" in="SourceGraphic" in2="effect1_dropShadow_9_8566" result="shape"/>
</filter>
<linearGradient id="paint0_linear_9_8566" x1="244" y1="37.5" x2="244" y2="75" gradientUnits="userSpaceOnUse">
<stop stop-color="white"/>
<stop offset="1" stop-color="white" stop-opacity="0"/>
</linearGradient>
</defs>
</svg>
