<svg width="326" height="95" viewBox="0 0 326 95" fill="none" xmlns="http://www.w3.org/2000/svg">
<rect width="326" height="95" rx="20" fill="#82E492"/>
<path d="M275.844 20.8093C274.209 20.193 272.395 20.2517 270.803 20.9723C269.211 21.693 267.97 23.0166 267.354 24.652L266.192 27.7353C265.576 29.3707 265.634 31.184 266.355 32.7762C267.076 34.3684 268.399 35.6091 270.035 36.2254C271.67 36.8417 273.483 36.7831 275.076 36.0625C276.668 35.3418 277.909 34.0182 278.525 32.3827L279.687 29.2995C280.303 27.6641 280.244 25.8508 279.524 24.2586C278.803 22.6664 277.48 21.4256 275.844 20.8093ZM291.26 26.6187C289.625 26.0024 287.811 26.061 286.219 26.7817C284.627 27.5023 283.386 28.8259 282.77 30.4614L281.608 33.5446C280.992 35.18 281.05 36.9933 281.771 38.5855C282.492 40.1778 283.815 41.4185 285.451 42.0348C287.086 42.6511 288.9 42.5924 290.492 41.8718C292.084 41.1511 293.325 39.8275 293.941 38.1921L295.103 35.1088C295.719 33.4734 295.661 31.6601 294.94 30.0679C294.219 28.4757 292.896 27.235 291.26 26.6187ZM260.785 32.7398C259.15 32.1235 257.336 32.1822 255.744 32.9028C254.152 33.6235 252.911 34.9471 252.295 36.5825L251.714 38.1241C251.098 39.7596 251.156 41.5729 251.877 43.1651C252.598 44.7573 253.921 45.998 255.557 46.6143C257.192 47.2306 259.005 47.172 260.598 46.4513C262.19 45.7307 263.431 44.4071 264.047 42.7716L264.628 41.23C265.244 39.5946 265.185 37.7813 264.465 36.1891C263.744 34.5969 262.421 33.3561 260.785 32.7398ZM294.7 45.5204C293.065 44.9041 291.252 44.9627 289.66 45.6834C288.067 46.404 286.827 47.7276 286.21 49.3631L285.629 50.9047C285.013 52.5401 285.072 54.3534 285.792 55.9456C286.513 57.5378 287.837 58.7786 289.472 59.3949C291.108 60.0112 292.921 59.9525 294.513 59.2319C296.105 58.5112 297.346 57.1876 297.962 55.5522L298.543 54.0105C299.159 52.3751 299.101 50.5618 298.38 48.9696C297.66 47.3774 296.336 46.1367 294.7 45.5204ZM281.029 50.1534C280.599 48.8935 279.897 47.7442 278.971 46.7881C278.044 45.832 276.918 45.0927 275.673 44.6233C274.427 44.154 273.093 43.9661 271.766 44.0733C270.44 44.1805 269.153 44.5801 267.999 45.2433L254.889 52.778C249.457 55.8964 250.107 63.9264 255.965 66.1339C256.804 66.45 257.703 66.5671 258.591 66.4721L259.91 66.3354C262.359 66.0815 264.834 66.4014 267.139 67.2698C269.443 68.1381 271.514 69.5311 273.186 71.3384L274.087 72.3117C274.692 72.969 275.445 73.4746 276.283 73.7906C282.141 75.9982 287.929 70.3942 285.909 64.4676L281.029 50.1534Z" fill="white" fill-opacity="0.7"/>
</svg>
