<svg width="36" height="36" viewBox="0 0 36 36" fill="none" xmlns="http://www.w3.org/2000/svg">
  <path d="M9.04545 5.68201C8.10514 5.68201 7.20334 6.05554 6.53844 6.72045C5.87354 7.38535 5.5 8.28715 5.5 9.22746V26.9547C5.5 27.895 5.87354 28.7968 6.53844 29.4617C7.20334 30.1266 8.10514 30.5002 9.04545 30.5002H18.2583C17.8417 29.1529 17.6609 27.4936 18.4409 26.2456C18.6785 25.8291 18.9975 25.4727 19.368 25.182H17.0227C16.7877 25.182 16.5622 25.0886 16.396 24.9224C16.2297 24.7562 16.1364 24.5307 16.1364 24.2956C16.1364 24.0606 16.2297 23.8351 16.396 23.6689C16.5622 23.5027 16.7877 23.4093 17.0227 23.4093H22.1778C21.6966 22.6064 21.4463 21.6862 21.4545 20.7502C21.4545 20.4471 21.4776 20.151 21.5237 19.8638H17.0227C16.7877 19.8638 16.5622 19.7704 16.396 19.6042C16.2297 19.438 16.1364 19.2125 16.1364 18.9775C16.1364 18.7424 16.2297 18.5169 16.396 18.3507C16.5622 18.1845 16.7877 18.0911 17.0227 18.0911H22.13C23.027 16.4815 24.7376 15.432 26.7727 15.432C27.6591 15.432 28.5455 15.6093 29.4318 16.1411C29.7509 16.3184 30.047 16.5311 30.3182 16.7704V9.22746C30.3182 8.28715 29.9446 7.38535 29.2797 6.72045C28.6148 6.05554 27.713 5.68201 26.7727 5.68201H9.04545ZM13.4773 13.2161C13.4773 13.5687 13.3372 13.9069 13.0879 14.1562C12.8385 14.4056 12.5003 14.5456 12.1477 14.5456C11.7951 14.5456 11.4569 14.4056 11.2076 14.1562C10.9583 13.9069 10.8182 13.5687 10.8182 13.2161C10.8182 12.8635 10.9583 12.5253 11.2076 12.276C11.4569 12.0266 11.7951 11.8866 12.1477 11.8866C12.5003 11.8866 12.8385 12.0266 13.0879 12.276C13.3372 12.5253 13.4773 12.8635 13.4773 13.2161ZM12.1477 19.8638C11.7951 19.8638 11.4569 19.7237 11.2076 19.4744C10.9583 19.2251 10.8182 18.8869 10.8182 18.5343C10.8182 18.1817 10.9583 17.8435 11.2076 17.5941C11.4569 17.3448 11.7951 17.2047 12.1477 17.2047C12.5003 17.2047 12.8385 17.3448 13.0879 17.5941C13.3372 17.8435 13.4773 18.1817 13.4773 18.5343C13.4773 18.8869 13.3372 19.2251 13.0879 19.4744C12.8385 19.7237 12.5003 19.8638 12.1477 19.8638ZM13.4773 23.8525C13.4773 24.2051 13.3372 24.5433 13.0879 24.7926C12.8385 25.0419 12.5003 25.182 12.1477 25.182C11.7951 25.182 11.4569 25.0419 11.2076 24.7926C10.9583 24.5433 10.8182 24.2051 10.8182 23.8525C10.8182 23.4998 10.9583 23.1617 11.2076 22.9123C11.4569 22.663 11.7951 22.5229 12.1477 22.5229C12.5003 22.5229 12.8385 22.663 13.0879 22.9123C13.3372 23.1617 13.4773 23.4998 13.4773 23.8525ZM17.0227 12.7729H24.1136C24.3487 12.7729 24.5742 12.8663 24.7404 13.0325C24.9066 13.1988 25 13.4242 25 13.6593C25 13.8944 24.9066 14.1198 24.7404 14.286C24.5742 14.4523 24.3487 14.5456 24.1136 14.5456H17.0227C16.7877 14.5456 16.5622 14.4523 16.396 14.286C16.2297 14.1198 16.1364 13.8944 16.1364 13.6593C16.1364 13.4242 16.2297 13.1988 16.396 13.0325C16.5622 12.8663 16.7877 12.7729 17.0227 12.7729ZM28.5455 17.6798C28.1421 17.447 27.6969 17.2959 27.2352 17.2352C26.7735 17.1745 26.3043 17.2053 25.8545 17.3259C24.9461 17.5694 24.1716 18.1638 23.7015 18.9783C23.2313 19.7929 23.104 20.7608 23.3475 21.6693C23.591 22.5777 24.1855 23.3522 25 23.8223C25.8145 24.2925 26.7825 24.4198 27.6909 24.1763C28.5993 23.9328 29.3738 23.3383 29.844 22.5238C30.3141 21.7093 30.4415 20.7413 30.1979 19.8329C29.9544 18.9245 29.36 18.15 28.5455 17.6798ZM19.6818 28.2843C19.6818 27.0611 20.6745 26.0684 21.8977 26.0684H31.6477C32.8709 26.0684 33.8636 27.0611 33.8636 28.2843V28.4403C33.8654 28.5661 33.8672 28.692 33.8619 28.8179C33.8454 29.0884 33.8062 29.357 33.7449 29.6209C33.592 30.2776 33.3152 30.8992 32.9294 31.4521C31.958 32.8349 30.1143 34.0456 26.7727 34.0456C23.9169 34.0456 22.153 33.1593 21.0982 32.0425C20.4576 31.3656 20.0101 30.5294 19.8024 29.6209C19.7404 29.357 19.7007 29.0884 19.6836 28.8179L19.6818 28.2896V28.2843Z" fill="#A0A3BD"/>
</svg>
