<svg width="58" height="58" viewBox="0 0 58 58" fill="none" xmlns="http://www.w3.org/2000/svg">
<circle cx="29" cy="29" r="29" fill="white" fill-opacity="0.6"/>
<path d="M28.7529 37.8977C28.7529 37.8977 18.4546 32.1307 18.4546 25.1278C18.4548 23.8901 18.8837 22.6907 19.6683 21.7334C20.4529 20.7762 21.5448 20.1202 22.7584 19.8771C23.972 19.6339 25.2324 19.8186 26.3252 20.3997C27.418 20.9808 28.2759 21.9225 28.7529 23.0646L28.7529 23.0646C29.2299 21.9225 30.0877 20.9808 31.1805 20.3997C32.2734 19.8186 33.5337 19.6339 34.7473 19.8771C35.9609 20.1202 37.0529 20.7762 37.8375 21.7334C38.6221 22.6907 39.051 23.8901 39.0512 25.1278C39.0512 32.1307 28.7529 37.8977 28.7529 37.8977Z" fill="#F52C2C" stroke="#F52C2C" stroke-width="1.97727" stroke-linecap="round" stroke-linejoin="round"/>
</svg>
