<svg width="45" height="44" viewBox="0 0 45 44" fill="none" xmlns="http://www.w3.org/2000/svg">
<path d="M22.3633 21.8183C20.3633 21.8183 18.6512 21.1062 17.227 19.6819C15.8027 18.2577 15.0906 16.5456 15.0906 14.5456C15.0906 12.5456 15.8027 10.8334 17.227 9.40919C18.6512 7.98495 20.3633 7.27283 22.3633 7.27283C24.3633 7.27283 26.0754 7.98495 27.4997 9.40919C28.9239 10.8334 29.6361 12.5456 29.6361 14.5456C29.6361 16.5456 28.9239 18.2577 27.4997 19.6819C26.0754 21.1062 24.3633 21.8183 22.3633 21.8183ZM11.4542 36.3637C10.4542 36.3637 9.59848 36.008 8.88696 35.2965C8.17423 34.5837 7.81787 33.7274 7.81787 32.7274V31.2728C7.81787 30.2425 8.08333 29.2952 8.61424 28.431C9.14393 27.568 9.84817 26.9092 10.727 26.4546C12.6057 25.5153 14.5148 24.8104 16.4542 24.3401C18.3936 23.871 20.3633 23.6365 22.3633 23.6365C24.3633 23.6365 26.333 23.871 28.2724 24.3401C30.2118 24.8104 32.1209 25.5153 33.9997 26.4546C34.8785 26.9092 35.5827 27.568 36.1124 28.431C36.6433 29.2952 36.9088 30.2425 36.9088 31.2728V32.7274C36.9088 33.7274 36.553 34.5837 35.8415 35.2965C35.1288 36.008 34.2724 36.3637 33.2724 36.3637H11.4542Z" fill="#A0A3BD"/>
</svg>
